# MagicaVoxel @ Ephtracy

# group
o 

# material
mtllib PlayerFox.vox-0.mtl
usemtl palette

# normals
vn -1 0 0
vn 1 0 0
vn 0 0 1
vn 0 0 -1
vn 0 -1 0
vn 0 1 0

# texcoords
vt 0.939453 0.5
vt 0.970703 0.5
vt 0.974609 0.5
vt 0.978516 0.5

# verts
v -0.6 0.25 -0.05
v -0.6 0.25 -0.15
v -0.6 0.55 -0.05
v -0.6 0.55 -0.15
v -0.5 0.15 -0.05
v -0.5 0.15 -0.15
v -0.5 0.25 -0.05
v -0.5 0.25 -0.15
v -0.4 0.05 -0.05
v -0.4 0.05 -0.15
v -0.4 0.15 -0.05
v -0.4 0.15 -0.15
v -0.4 0.15 -0.25
v -0.4 0.35 -0.15
v -0.4 0.35 -0.25
v -0.3 -0.15 0.15
v -0.3 -0.15 -0.35
v -0.3 0.05 0.15
v -0.3 0.05 0.05
v -0.3 0.05 -0.05
v -0.3 0.05 -0.15
v -0.3 0.15 0.15
v -0.3 0.15 0.05
v -0.3 0.15 -0.05
v -0.3 0.15 -0.15
v -0.3 0.15 -0.25
v -0.3 0.25 0.15
v -0.3 0.25 -0.05
v -0.3 0.25 -0.25
v -0.3 0.25 -0.35
v -0.2 -0.55 0.05
v -0.2 -0.55 -0.25
v -0.2 -0.15 0.25
v -0.2 -0.15 0.15
v -0.2 -0.15 0.05
v -0.2 -0.15 -0.25
v -0.2 0.05 0.25
v -0.2 0.05 0.15
v -0.1 -0.05 0.35
v -0.1 -0.05 0.25
v -0.1 0.05 0.35
v -0.1 0.05 0.25
v 0.1 0.25 -0.05
v 0.1 0.25 -0.15
v 0.1 0.35 -0.05
v 0.1 0.35 -0.15
v 0.2 0.25 -0.15
v 0.2 0.25 -0.25
v 0.2 0.35 -0.05
v 0.2 0.35 -0.15
v 0.2 0.35 -0.25
v 0.2 0.45 -0.05
v 0.2 0.45 -0.15
v 0.3 0.45 -0.05
v 0.3 0.45 -0.15
v 0.3 0.55 -0.05
v 0.3 0.55 -0.15
v -0.3 0.45 -0.05
v -0.3 0.45 -0.15
v -0.3 0.55 -0.05
v -0.3 0.55 -0.15
v -0.2 0.25 -0.15
v -0.2 0.25 -0.25
v -0.2 0.35 -0.05
v -0.2 0.35 -0.15
v -0.2 0.35 -0.25
v -0.2 0.45 -0.05
v -0.2 0.45 -0.15
v -0.1 0.25 -0.05
v -0.1 0.25 -0.15
v -0.1 0.35 -0.05
v -0.1 0.35 -0.15
v 0.1 -0.05 0.35
v 0.1 -0.05 0.25
v 0.1 0.05 0.35
v 0.1 0.05 0.25
v 0.2 -0.55 0.05
v 0.2 -0.55 -0.25
v 0.2 -0.15 0.25
v 0.2 -0.15 0.15
v 0.2 -0.15 0.05
v 0.2 -0.15 -0.25
v 0.2 0.05 0.25
v 0.2 0.05 0.15
v 0.3 -0.15 0.15
v 0.3 -0.15 -0.35
v 0.3 0.05 0.15
v 0.3 0.05 0.05
v 0.3 0.05 -0.05
v 0.3 0.05 -0.15
v 0.3 0.15 0.15
v 0.3 0.15 0.05
v 0.3 0.15 -0.05
v 0.3 0.15 -0.15
v 0.3 0.15 -0.25
v 0.3 0.25 0.15
v 0.3 0.25 -0.05
v 0.3 0.25 -0.25
v 0.3 0.25 -0.35
v 0.4 0.05 -0.05
v 0.4 0.05 -0.15
v 0.4 0.15 -0.05
v 0.4 0.15 -0.15
v 0.4 0.15 -0.25
v 0.4 0.35 -0.15
v 0.4 0.35 -0.25
v 0.5 0.15 -0.05
v 0.5 0.15 -0.15
v 0.5 0.25 -0.05
v 0.5 0.25 -0.15
v 0.6 0.25 -0.05
v 0.6 0.25 -0.15
v 0.6 0.55 -0.05
v 0.6 0.55 -0.15
v -0.1 -0.05 0.35
v -0.1 0.05 0.35
v 0.1 -0.05 0.35
v 0.1 0.05 0.35
v -0.2 -0.15 0.25
v -0.2 0.05 0.25
v -0.1 -0.05 0.25
v -0.1 0.05 0.25
v 0.1 -0.05 0.25
v 0.1 0.05 0.25
v 0.2 -0.15 0.25
v 0.2 0.05 0.25
v -0.3 -0.15 0.15
v -0.3 0.05 0.15
v -0.3 0.15 0.15
v -0.3 0.25 0.15
v -0.2 -0.15 0.15
v -0.2 0.05 0.15
v -0.2 0.15 0.15
v -0.1 0.05 0.15
v -0.1 0.25 0.15
v 0.1 0.05 0.15
v 0.1 0.25 0.15
v 0.2 -0.15 0.15
v 0.2 0.05 0.15
v 0.2 0.15 0.15
v 0.3 -0.15 0.15
v 0.3 0.05 0.15
v 0.3 0.15 0.15
v 0.3 0.25 0.15
v -0.2 -0.55 0.05
v -0.2 -0.15 0.05
v -0.1 -0.45 0.05
v -0.1 -0.25 0.05
v 0.1 -0.45 0.05
v 0.1 -0.25 0.05
v 0.2 -0.55 0.05
v 0.2 -0.15 0.05
v -0.6 0.25 -0.05
v -0.6 0.55 -0.05
v -0.5 0.15 -0.05
v -0.5 0.25 -0.05
v -0.5 0.45 -0.05
v -0.4 0.05 -0.05
v -0.4 0.15 -0.05
v -0.4 0.35 -0.05
v -0.3 0.05 -0.05
v -0.3 0.15 -0.05
v -0.3 0.25 -0.05
v -0.3 0.45 -0.05
v -0.3 0.55 -0.05
v -0.2 0.25 -0.05
v -0.2 0.35 -0.05
v -0.2 0.45 -0.05
v -0.1 0.25 -0.05
v -0.1 0.35 -0.05
v 0.1 0.25 -0.05
v 0.1 0.35 -0.05
v 0.2 0.25 -0.05
v 0.2 0.35 -0.05
v 0.2 0.45 -0.05
v 0.3 0.05 -0.05
v 0.3 0.15 -0.05
v 0.3 0.25 -0.05
v 0.3 0.45 -0.05
v 0.3 0.55 -0.05
v 0.4 0.05 -0.05
v 0.4 0.15 -0.05
v 0.4 0.35 -0.05
v 0.5 0.15 -0.05
v 0.5 0.25 -0.05
v 0.5 0.45 -0.05
v 0.6 0.25 -0.05
v 0.6 0.55 -0.05
v -0.6 0.25 -0.15
v -0.6 0.55 -0.15
v -0.5 0.15 -0.15
v -0.5 0.25 -0.15
v -0.5 0.45 -0.15
v -0.4 0.05 -0.15
v -0.4 0.15 -0.15
v -0.4 0.35 -0.15
v -0.3 0.05 -0.15
v -0.3 0.15 -0.15
v -0.3 0.45 -0.15
v -0.3 0.55 -0.15
v -0.2 0.25 -0.15
v -0.2 0.35 -0.15
v -0.2 0.45 -0.15
v -0.1 0.25 -0.15
v -0.1 0.35 -0.15
v 0.1 0.25 -0.15
v 0.1 0.35 -0.15
v 0.2 0.25 -0.15
v 0.2 0.35 -0.15
v 0.2 0.45 -0.15
v 0.3 0.05 -0.15
v 0.3 0.15 -0.15
v 0.3 0.45 -0.15
v 0.3 0.55 -0.15
v 0.4 0.05 -0.15
v 0.4 0.15 -0.15
v 0.4 0.35 -0.15
v 0.5 0.15 -0.15
v 0.5 0.25 -0.15
v 0.5 0.45 -0.15
v 0.6 0.25 -0.15
v 0.6 0.55 -0.15
v -0.4 0.15 -0.25
v -0.4 0.35 -0.25
v -0.3 0.15 -0.25
v -0.3 0.25 -0.25
v -0.2 -0.55 -0.25
v -0.2 -0.15 -0.25
v -0.2 0.25 -0.25
v -0.2 0.35 -0.25
v -0.1 -0.35 -0.25
v -0.1 -0.15 -0.25
v 0.1 -0.35 -0.25
v 0.1 -0.15 -0.25
v 0.2 -0.55 -0.25
v 0.2 -0.15 -0.25
v 0.2 0.25 -0.25
v 0.2 0.35 -0.25
v 0.3 0.15 -0.25
v 0.3 0.25 -0.25
v 0.4 0.15 -0.25
v 0.4 0.35 -0.25
v -0.3 -0.15 -0.35
v -0.3 0.25 -0.35
v -0.1 -0.15 -0.35
v -0.1 0.25 -0.35
v 0.1 -0.15 -0.35
v 0.1 0.25 -0.35
v 0.3 -0.15 -0.35
v 0.3 0.25 -0.35
v -0.2 -0.55 0.05
v 0.2 -0.55 0.05
v -0.2 -0.55 -0.25
v 0.2 -0.55 -0.25
v -0.2 -0.15 0.25
v 0.2 -0.15 0.25
v -0.3 -0.15 0.15
v -0.2 -0.15 0.15
v 0.2 -0.15 0.15
v 0.3 -0.15 0.15
v -0.2 -0.15 0.05
v 0.2 -0.15 0.05
v -0.2 -0.15 -0.25
v -0.1 -0.15 -0.25
v 0.1 -0.15 -0.25
v 0.2 -0.15 -0.25
v -0.3 -0.15 -0.35
v -0.1 -0.15 -0.35
v 0.1 -0.15 -0.35
v 0.3 -0.15 -0.35
v -0.1 -0.05 0.35
v 0.1 -0.05 0.35
v -0.1 -0.05 0.25
v 0.1 -0.05 0.25
v -0.4 0.05 -0.05
v -0.3 0.05 -0.05
v 0.3 0.05 -0.05
v 0.4 0.05 -0.05
v -0.4 0.05 -0.15
v -0.3 0.05 -0.15
v 0.3 0.05 -0.15
v 0.4 0.05 -0.15
v -0.5 0.15 -0.05
v -0.4 0.15 -0.05
v 0.4 0.15 -0.05
v 0.5 0.15 -0.05
v -0.5 0.15 -0.15
v -0.4 0.15 -0.15
v -0.3 0.15 -0.15
v 0.3 0.15 -0.15
v 0.4 0.15 -0.15
v 0.5 0.15 -0.15
v -0.4 0.15 -0.25
v -0.3 0.15 -0.25
v 0.3 0.15 -0.25
v 0.4 0.15 -0.25
v -0.6 0.25 -0.05
v -0.5 0.25 -0.05
v 0.5 0.25 -0.05
v 0.6 0.25 -0.05
v -0.6 0.25 -0.15
v -0.5 0.25 -0.15
v 0.5 0.25 -0.15
v 0.6 0.25 -0.15
v -0.1 0.05 0.35
v 0.1 0.05 0.35
v -0.2 0.05 0.25
v -0.1 0.05 0.25
v 0.1 0.05 0.25
v 0.2 0.05 0.25
v -0.2 0.05 0.15
v -0.1 0.05 0.15
v 0.1 0.05 0.15
v 0.2 0.05 0.15
v -0.3 0.25 0.15
v -0.1 0.25 0.15
v 0.1 0.25 0.15
v 0.3 0.25 0.15
v -0.2 0.25 0.05
v -0.1 0.25 0.05
v 0.1 0.25 0.05
v 0.2 0.25 0.05
v -0.3 0.25 -0.05
v -0.2 0.25 -0.05
v -0.1 0.25 -0.05
v 0.1 0.25 -0.05
v 0.2 0.25 -0.05
v 0.3 0.25 -0.05
v -0.2 0.25 -0.15
v -0.1 0.25 -0.15
v 0.1 0.25 -0.15
v 0.2 0.25 -0.15
v -0.3 0.25 -0.25
v -0.2 0.25 -0.25
v 0.2 0.25 -0.25
v 0.3 0.25 -0.25
v -0.3 0.25 -0.35
v -0.1 0.25 -0.35
v 0.1 0.25 -0.35
v 0.3 0.25 -0.35
v -0.2 0.35 -0.05
v -0.1 0.35 -0.05
v 0.1 0.35 -0.05
v 0.2 0.35 -0.05
v -0.4 0.35 -0.15
v -0.2 0.35 -0.15
v -0.1 0.35 -0.15
v 0.1 0.35 -0.15
v 0.2 0.35 -0.15
v 0.4 0.35 -0.15
v -0.4 0.35 -0.25
v -0.2 0.35 -0.25
v 0.2 0.35 -0.25
v 0.4 0.35 -0.25
v -0.3 0.45 -0.05
v -0.2 0.45 -0.05
v 0.2 0.45 -0.05
v 0.3 0.45 -0.05
v -0.3 0.45 -0.15
v -0.2 0.45 -0.15
v 0.2 0.45 -0.15
v 0.3 0.45 -0.15
v -0.6 0.55 -0.05
v -0.3 0.55 -0.05
v 0.3 0.55 -0.05
v 0.6 0.55 -0.05
v -0.6 0.55 -0.15
v -0.3 0.55 -0.15
v 0.3 0.55 -0.15
v 0.6 0.55 -0.15

# faces
f 3/3/1 2/3/1 1/3/1
f 4/3/1 2/3/1 3/3/1
f 7/1/1 6/1/1 5/1/1
f 8/1/1 6/1/1 7/1/1
f 11/1/1 10/1/1 9/1/1
f 12/1/1 10/1/1 11/1/1
f 14/1/1 13/1/1 12/1/1
f 15/1/1 13/1/1 14/1/1
f 18/2/1 17/2/1 16/2/1
f 19/2/1 17/2/1 18/2/1
f 20/2/1 17/2/1 19/2/1
f 21/2/1 17/2/1 20/2/1
f 22/3/1 19/3/1 18/3/1
f 23/2/1 20/2/1 19/2/1
f 23/3/1 19/3/1 22/3/1
f 24/2/1 20/2/1 23/2/1
f 25/2/1 17/2/1 21/2/1
f 26/2/1 17/2/1 25/2/1
f 27/2/1 24/2/1 23/2/1
f 27/2/1 23/2/1 22/2/1
f 28/2/1 24/2/1 27/2/1
f 29/2/1 17/2/1 26/2/1
f 30/2/1 17/2/1 29/2/1
f 35/2/1 32/2/1 31/2/1
f 36/2/1 32/2/1 35/2/1
f 37/4/1 34/4/1 33/4/1
f 38/4/1 34/4/1 37/4/1
f 41/3/1 40/3/1 39/3/1
f 42/3/1 40/3/1 41/3/1
f 45/1/1 44/1/1 43/1/1
f 46/1/1 44/1/1 45/1/1
f 50/1/1 48/1/1 47/1/1
f 51/1/1 48/1/1 50/1/1
f 52/1/1 50/1/1 49/1/1
f 53/1/1 50/1/1 52/1/1
f 56/3/1 55/3/1 54/3/1
f 57/3/1 55/3/1 56/3/1
f 58/3/2 59/3/2 60/3/2
f 60/3/2 59/3/2 61/3/2
f 62/1/2 63/1/2 65/1/2
f 65/1/2 63/1/2 66/1/2
f 64/1/2 65/1/2 67/1/2
f 67/1/2 65/1/2 68/1/2
f 69/1/2 70/1/2 71/1/2
f 71/1/2 70/1/2 72/1/2
f 73/3/2 74/3/2 75/3/2
f 75/3/2 74/3/2 76/3/2
f 77/2/2 78/2/2 81/2/2
f 81/2/2 78/2/2 82/2/2
f 79/4/2 80/4/2 83/4/2
f 83/4/2 80/4/2 84/4/2
f 85/2/2 86/2/2 87/2/2
f 87/2/2 86/2/2 88/2/2
f 88/2/2 86/2/2 89/2/2
f 89/2/2 86/2/2 90/2/2
f 87/3/2 88/3/2 91/3/2
f 88/2/2 89/2/2 92/2/2
f 91/3/2 88/3/2 92/3/2
f 92/2/2 89/2/2 93/2/2
f 90/2/2 86/2/2 94/2/2
f 94/2/2 86/2/2 95/2/2
f 92/2/2 93/2/2 96/2/2
f 91/2/2 92/2/2 96/2/2
f 96/2/2 93/2/2 97/2/2
f 95/2/2 86/2/2 98/2/2
f 98/2/2 86/2/2 99/2/2
f 100/1/2 101/1/2 102/1/2
f 102/1/2 101/1/2 103/1/2
f 103/1/2 104/1/2 105/1/2
f 105/1/2 104/1/2 106/1/2
f 107/1/2 108/1/2 109/1/2
f 109/1/2 108/1/2 110/1/2
f 111/3/2 112/3/2 113/3/2
f 113/3/2 112/3/2 114/3/2
f 117/3/3 116/3/3 115/3/3
f 118/3/3 116/3/3 117/3/3
f 121/4/3 120/4/3 119/4/3
f 122/4/3 120/4/3 121/4/3
f 123/4/3 121/4/3 119/4/3
f 125/4/3 123/4/3 119/4/3
f 125/4/3 124/4/3 123/4/3
f 126/4/3 124/4/3 125/4/3
f 131/2/3 128/2/3 127/2/3
f 132/3/3 129/3/3 128/3/3
f 132/2/3 128/2/3 131/2/3
f 133/2/3 130/2/3 129/2/3
f 133/3/3 129/3/3 132/3/3
f 134/2/3 133/2/3 132/2/3
f 135/2/3 130/2/3 133/2/3
f 135/2/3 133/2/3 134/2/3
f 136/1/3 135/1/3 134/1/3
f 137/1/3 135/1/3 136/1/3
f 139/2/3 137/2/3 136/2/3
f 140/2/3 137/2/3 139/2/3
f 141/2/3 139/2/3 138/2/3
f 142/3/3 140/3/3 139/3/3
f 142/2/3 139/2/3 141/2/3
f 143/2/3 137/2/3 140/2/3
f 143/3/3 140/3/3 142/3/3
f 144/2/3 137/2/3 143/2/3
f 147/2/3 146/2/3 145/2/3
f 148/2/3 146/2/3 147/2/3
f 149/2/3 147/2/3 145/2/3
f 149/4/3 148/4/3 147/4/3
f 150/2/3 146/2/3 148/2/3
f 150/4/3 148/4/3 149/4/3
f 151/2/3 149/2/3 145/2/3
f 151/2/3 150/2/3 149/2/3
f 152/2/3 146/2/3 150/2/3
f 152/2/3 150/2/3 151/2/3
f 156/3/3 154/3/3 153/3/3
f 157/3/3 154/3/3 156/3/3
f 159/1/3 156/1/3 155/1/3
f 159/1/3 157/1/3 156/1/3
f 160/1/3 157/1/3 159/1/3
f 161/1/3 159/1/3 158/1/3
f 162/4/3 160/4/3 159/4/3
f 162/1/3 159/1/3 161/1/3
f 163/4/3 160/4/3 162/4/3
f 164/3/3 154/3/3 157/3/3
f 164/1/3 157/1/3 160/1/3
f 165/3/3 154/3/3 164/3/3
f 166/4/3 160/4/3 163/4/3
f 167/1/3 164/1/3 160/1/3
f 167/4/3 160/4/3 166/4/3
f 168/1/3 164/1/3 167/1/3
f 169/1/3 167/1/3 166/1/3
f 170/1/3 167/1/3 169/1/3
f 173/1/3 172/1/3 171/1/3
f 174/1/3 172/1/3 173/1/3
f 178/4/3 174/4/3 173/4/3
f 179/1/3 175/1/3 174/1/3
f 181/1/3 177/1/3 176/1/3
f 182/4/3 178/4/3 177/4/3
f 182/1/3 177/1/3 181/1/3
f 183/1/3 179/1/3 174/1/3
f 183/4/3 178/4/3 182/4/3
f 183/4/3 174/4/3 178/4/3
f 184/1/3 183/1/3 182/1/3
f 185/1/3 183/1/3 184/1/3
f 186/1/3 179/1/3 183/1/3
f 186/1/3 183/1/3 185/1/3
f 186/3/3 180/3/3 179/3/3
f 187/3/3 186/3/3 185/3/3
f 188/3/3 180/3/3 186/3/3
f 188/3/3 186/3/3 187/3/3
f 189/3/4 190/3/4 192/3/4
f 192/3/4 190/3/4 193/3/4
f 191/1/4 192/1/4 195/1/4
f 192/1/4 193/1/4 195/1/4
f 195/1/4 193/1/4 196/1/4
f 194/1/4 195/1/4 197/1/4
f 197/1/4 195/1/4 198/1/4
f 193/3/4 190/3/4 199/3/4
f 196/1/4 193/1/4 199/1/4
f 199/3/4 190/3/4 200/3/4
f 196/1/4 199/1/4 202/1/4
f 202/1/4 199/1/4 203/1/4
f 201/1/4 202/1/4 204/1/4
f 204/1/4 202/1/4 205/1/4
f 206/1/4 207/1/4 208/1/4
f 208/1/4 207/1/4 209/1/4
f 209/1/4 210/1/4 213/1/4
f 211/1/4 212/1/4 215/1/4
f 215/1/4 212/1/4 216/1/4
f 209/1/4 213/1/4 217/1/4
f 216/1/4 217/1/4 218/1/4
f 218/1/4 217/1/4 219/1/4
f 217/1/4 213/1/4 220/1/4
f 219/1/4 217/1/4 220/1/4
f 213/3/4 214/3/4 220/3/4
f 219/3/4 220/3/4 221/3/4
f 220/3/4 214/3/4 222/3/4
f 221/3/4 220/3/4 222/3/4
f 223/1/4 224/1/4 225/1/4
f 225/1/4 224/1/4 226/1/4
f 226/1/4 224/1/4 229/1/4
f 229/1/4 224/1/4 230/1/4
f 227/2/4 228/2/4 231/2/4
f 231/2/4 228/2/4 232/2/4
f 227/2/4 231/2/4 233/2/4
f 231/1/4 232/1/4 233/1/4
f 233/1/4 232/1/4 234/1/4
f 227/2/4 233/2/4 235/2/4
f 233/2/4 234/2/4 235/2/4
f 235/2/4 234/2/4 236/2/4
f 237/1/4 238/1/4 240/1/4
f 239/1/4 240/1/4 241/1/4
f 240/1/4 238/1/4 242/1/4
f 241/1/4 240/1/4 242/1/4
f 243/2/4 244/2/4 245/2/4
f 245/2/4 244/2/4 246/2/4
f 245/1/4 246/1/4 247/1/4
f 247/1/4 246/1/4 248/1/4
f 247/2/4 248/2/4 249/2/4
f 249/2/4 248/2/4 250/2/4
f 253/2/5 252/2/5 251/2/5
f 254/2/5 252/2/5 253/2/5
f 258/4/5 256/4/5 255/4/5
f 259/4/5 256/4/5 258/4/5
f 261/2/5 258/2/5 257/2/5
f 261/2/5 260/2/5 259/2/5
f 261/2/5 259/2/5 258/2/5
f 262/2/5 260/2/5 261/2/5
f 263/2/5 261/2/5 257/2/5
f 266/2/5 260/2/5 262/2/5
f 267/2/5 263/2/5 257/2/5
f 267/2/5 264/2/5 263/2/5
f 268/1/5 265/1/5 264/1/5
f 268/2/5 264/2/5 267/2/5
f 269/2/5 266/2/5 265/2/5
f 269/1/5 265/1/5 268/1/5
f 270/2/5 260/2/5 266/2/5
f 270/2/5 266/2/5 269/2/5
f 273/3/5 272/3/5 271/3/5
f 274/3/5 272/3/5 273/3/5
f 279/1/5 276/1/5 275/1/5
f 280/1/5 276/1/5 279/1/5
f 281/1/5 278/1/5 277/1/5
f 282/1/5 278/1/5 281/1/5
f 287/1/5 284/1/5 283/1/5
f 288/1/5 284/1/5 287/1/5
f 291/1/5 286/1/5 285/1/5
f 292/1/5 286/1/5 291/1/5
f 293/1/5 289/1/5 288/1/5
f 294/1/5 289/1/5 293/1/5
f 295/1/5 291/1/5 290/1/5
f 296/1/5 291/1/5 295/1/5
f 301/3/5 298/3/5 297/3/5
f 302/3/5 298/3/5 301/3/5
f 303/3/5 300/3/5 299/3/5
f 304/3/5 300/3/5 303/3/5
f 305/3/6 306/3/6 308/3/6
f 308/3/6 306/3/6 309/3/6
f 307/4/6 308/4/6 311/4/6
f 308/1/6 309/1/6 312/1/6
f 311/4/6 308/4/6 312/4/6
f 309/4/6 310/4/6 313/4/6
f 312/1/6 309/1/6 313/1/6
f 313/4/6 310/4/6 314/4/6
f 315/2/6 316/2/6 319/2/6
f 316/1/6 317/1/6 320/1/6
f 319/2/6 316/2/6 320/2/6
f 317/2/6 318/2/6 321/2/6
f 320/1/6 317/1/6 321/1/6
f 321/2/6 318/2/6 322/2/6
f 315/2/6 319/2/6 323/2/6
f 319/1/6 320/1/6 324/1/6
f 323/2/6 319/2/6 324/2/6
f 320/1/6 321/1/6 324/1/6
f 321/1/6 322/1/6 324/1/6
f 324/1/6 322/1/6 325/1/6
f 325/1/6 322/1/6 326/1/6
f 322/2/6 318/2/6 327/2/6
f 326/1/6 322/1/6 327/1/6
f 327/2/6 318/2/6 328/2/6
f 325/1/6 326/1/6 330/1/6
f 330/1/6 326/1/6 331/1/6
f 329/2/6 330/2/6 334/2/6
f 331/2/6 332/2/6 335/2/6
f 333/2/6 334/2/6 337/2/6
f 330/1/6 331/1/6 338/1/6
f 337/2/6 334/2/6 338/2/6
f 334/2/6 330/2/6 338/2/6
f 335/2/6 336/2/6 339/2/6
f 338/1/6 331/1/6 339/1/6
f 331/2/6 335/2/6 339/2/6
f 339/2/6 336/2/6 340/2/6
f 341/1/6 342/1/6 346/1/6
f 346/1/6 342/1/6 347/1/6
f 343/1/6 344/1/6 348/1/6
f 348/1/6 344/1/6 349/1/6
f 345/1/6 346/1/6 351/1/6
f 351/1/6 346/1/6 352/1/6
f 349/1/6 350/1/6 353/1/6
f 353/1/6 350/1/6 354/1/6
f 355/1/6 356/1/6 359/1/6
f 359/1/6 356/1/6 360/1/6
f 357/1/6 358/1/6 361/1/6
f 361/1/6 358/1/6 362/1/6
f 363/3/6 364/3/6 367/3/6
f 367/3/6 364/3/6 368/3/6
f 365/3/6 366/3/6 369/3/6
f 369/3/6 366/3/6 370/3/6
