# MagicaVoxel @ Ephtracy

# group
o 

# material
mtllib Player_Cheetah.vox-0.mtl
usemtl palette

# normals
vn -1 0 0
vn 1 0 0
vn 0 0 1
vn 0 0 -1
vn 0 -1 0
vn 0 1 0

# texcoords
vt 0.908203 0.5
vt 0.912109 0.5
vt 0.974609 0.5
vt 0.978516 0.5

# verts
v -0.3 -0.7 0.15
v -0.3 -0.7 0.05
v -0.3 -0.4 0.35
v -0.3 -0.4 0.15
v -0.3 -0.4 0.05
v -0.3 -0.4 -0.15
v -0.3 -0.2 0.35
v -0.3 -0.2 0.25
v -0.3 -0.1 0.35
v -0.3 -0.1 0.25
v -0.3 0 0.35
v -0.3 0 0.15
v -0.3 0 0.05
v -0.3 0 -0.15
v -0.3 0.2 0.15
v -0.3 0.2 0.05
v -0.2 -1 0.15
v -0.2 -1 0.05
v -0.2 -0.9 0.15
v -0.2 -0.9 0.05
v -0.2 -0.8 0.25
v -0.2 -0.8 0.15
v -0.2 -0.8 0.05
v -0.2 -0.8 -0.05
v -0.2 -0.7 0.15
v -0.2 -0.7 0.05
v -0.2 -0.7 -0.05
v -0.2 -0.5 0.25
v -0.2 -0.5 0.15
v -0.2 -0.4 0.25
v -0.2 -0.4 0.15
v -0.2 -0.4 0.05
v -0.2 -0.4 -0.05
v -0.2 0 0.05
v -0.2 0 -0.05
v -0.2 0.1 0.05
v -0.2 0.1 -0.05
v -0.1 -0.9 -0.35
v -0.1 -0.9 -0.55
v -0.1 -0.9 -0.65
v -0.1 -0.9 -0.75
v -0.1 -0.8 -0.15
v -0.1 -0.8 -0.35
v -0.1 -0.8 -0.45
v -0.1 -0.8 -0.55
v -0.1 -0.8 -0.65
v -0.1 -0.8 -0.75
v -0.1 -0.7 -0.05
v -0.1 -0.7 -0.15
v -0.1 -0.7 -0.25
v -0.1 -0.7 -0.35
v -0.1 -0.7 -0.45
v -0.1 -0.6 -0.05
v -0.1 -0.6 -0.25
v -0.1 -0.3 0.45
v -0.1 -0.3 0.35
v -0.1 -0.2 0.45
v -0.1 -0.2 0.35
v 0.1 -1 0.15
v 0.1 -1 0.05
v 0.1 -0.9 0.15
v 0.1 -0.9 0.05
v 0.1 -0.8 0.15
v 0.1 -0.8 0.05
v 0.1 0 0.15
v 0.1 0 0.05
v 0.1 0 -0.05
v 0.1 0.1 0.15
v 0.1 0.1 0.05
v 0.1 0.1 -0.05
v 0.1 0.2 0.15
v 0.1 0.2 0.05
v -0.1 -1 0.15
v -0.1 -1 0.05
v -0.1 -0.9 0.15
v -0.1 -0.9 0.05
v -0.1 -0.8 0.15
v -0.1 -0.8 0.05
v -0.1 0 0.15
v -0.1 0 0.05
v -0.1 0 -0.05
v -0.1 0.1 0.15
v -0.1 0.1 0.05
v -0.1 0.1 -0.05
v -0.1 0.2 0.15
v -0.1 0.2 0.05
v 0.1 -0.9 -0.35
v 0.1 -0.9 -0.55
v 0.1 -0.9 -0.65
v 0.1 -0.9 -0.75
v 0.1 -0.8 -0.15
v 0.1 -0.8 -0.35
v 0.1 -0.8 -0.45
v 0.1 -0.8 -0.55
v 0.1 -0.8 -0.65
v 0.1 -0.8 -0.75
v 0.1 -0.7 -0.05
v 0.1 -0.7 -0.15
v 0.1 -0.7 -0.25
v 0.1 -0.7 -0.45
v 0.1 -0.6 -0.05
v 0.1 -0.6 -0.15
v 0.1 -0.6 -0.25
v 0.1 -0.3 0.45
v 0.1 -0.3 0.35
v 0.1 -0.2 0.45
v 0.1 -0.2 0.35
v 0.2 -1 0.15
v 0.2 -1 0.05
v 0.2 -0.9 0.15
v 0.2 -0.9 0.05
v 0.2 -0.8 0.25
v 0.2 -0.8 0.15
v 0.2 -0.8 0.05
v 0.2 -0.8 -0.05
v 0.2 -0.7 0.15
v 0.2 -0.7 0.05
v 0.2 -0.6 0.25
v 0.2 -0.6 0.15
v 0.2 -0.5 0.25
v 0.2 -0.5 0.15
v 0.2 -0.4 0.25
v 0.2 -0.4 0.15
v 0.2 -0.4 0.05
v 0.2 -0.4 -0.05
v 0.2 0 0.05
v 0.2 0 -0.05
v 0.2 0.1 0.05
v 0.2 0.1 -0.05
v 0.3 -0.7 0.15
v 0.3 -0.7 0.05
v 0.3 -0.4 0.35
v 0.3 -0.4 0.15
v 0.3 -0.4 0.05
v 0.3 -0.4 -0.15
v 0.3 -0.2 0.35
v 0.3 -0.2 0.25
v 0.3 -0.1 0.35
v 0.3 -0.1 0.25
v 0.3 0 0.35
v 0.3 0 0.15
v 0.3 0 0.05
v 0.3 0 -0.15
v 0.3 0.2 0.15
v 0.3 0.2 0.05
v -0.1 -0.3 0.45
v -0.1 -0.2 0.45
v 0.1 -0.3 0.45
v 0.1 -0.2 0.45
v -0.3 -0.4 0.35
v -0.3 -0.2 0.35
v -0.3 -0.1 0.35
v -0.3 0 0.35
v -0.2 -0.2 0.35
v -0.2 -0.1 0.35
v -0.1 -0.3 0.35
v -0.1 -0.2 0.35
v 0 -0.1 0.35
v 0 0 0.35
v 0.1 -0.3 0.35
v 0.1 -0.2 0.35
v 0.1 -0.1 0.35
v 0.1 0 0.35
v 0.2 -0.2 0.35
v 0.2 -0.1 0.35
v 0.3 -0.4 0.35
v 0.3 -0.2 0.35
v 0.3 -0.1 0.35
v 0.3 0 0.35
v -0.2 -0.8 0.25
v -0.2 -0.5 0.25
v -0.2 -0.4 0.25
v -0.1 -0.8 0.25
v -0.1 -0.7 0.25
v -0.1 -0.5 0.25
v -0.1 -0.4 0.25
v 0 -0.8 0.25
v 0 -0.7 0.25
v 0.1 -0.7 0.25
v 0.1 -0.6 0.25
v 0.1 -0.5 0.25
v 0.1 -0.4 0.25
v 0.2 -0.8 0.25
v 0.2 -0.6 0.25
v 0.2 -0.5 0.25
v 0.2 -0.4 0.25
v -0.3 -0.7 0.15
v -0.3 -0.4 0.15
v -0.3 0 0.15
v -0.3 0.2 0.15
v -0.2 -1 0.15
v -0.2 -0.9 0.15
v -0.2 -0.8 0.15
v -0.2 -0.7 0.15
v -0.2 -0.5 0.15
v -0.2 -0.4 0.15
v -0.2 0 0.15
v -0.2 0.1 0.15
v -0.1 -1 0.15
v -0.1 -0.9 0.15
v -0.1 -0.8 0.15
v -0.1 0 0.15
v -0.1 0.1 0.15
v -0.1 0.2 0.15
v 0.1 -1 0.15
v 0.1 -0.9 0.15
v 0.1 -0.8 0.15
v 0.1 0 0.15
v 0.1 0.1 0.15
v 0.1 0.2 0.15
v 0.2 -1 0.15
v 0.2 -0.9 0.15
v 0.2 -0.8 0.15
v 0.2 -0.7 0.15
v 0.2 -0.6 0.15
v 0.2 -0.5 0.15
v 0.2 -0.4 0.15
v 0.2 0 0.15
v 0.2 0.1 0.15
v 0.3 -0.7 0.15
v 0.3 -0.4 0.15
v 0.3 0 0.15
v 0.3 0.2 0.15
v -0.1 -0.8 -0.15
v -0.1 -0.7 -0.15
v 0.1 -0.8 -0.15
v 0.1 -0.7 -0.15
v -0.1 -0.9 -0.35
v -0.1 -0.8 -0.35
v 0.1 -0.9 -0.35
v 0.1 -0.8 -0.35
v -0.3 -0.7 0.05
v -0.3 -0.4 0.05
v -0.3 0 0.05
v -0.3 0.2 0.05
v -0.2 -1 0.05
v -0.2 -0.9 0.05
v -0.2 -0.8 0.05
v -0.2 -0.7 0.05
v -0.2 -0.4 0.05
v -0.2 0 0.05
v -0.2 0.1 0.05
v -0.1 -1 0.05
v -0.1 -0.9 0.05
v -0.1 -0.8 0.05
v -0.1 0.1 0.05
v -0.1 0.2 0.05
v 0.1 -1 0.05
v 0.1 -0.9 0.05
v 0.1 -0.8 0.05
v 0.1 0.1 0.05
v 0.1 0.2 0.05
v 0.2 -1 0.05
v 0.2 -0.9 0.05
v 0.2 -0.8 0.05
v 0.2 -0.7 0.05
v 0.2 -0.4 0.05
v 0.2 0 0.05
v 0.2 0.1 0.05
v 0.3 -0.7 0.05
v 0.3 -0.4 0.05
v 0.3 0 0.05
v 0.3 0.2 0.05
v -0.2 -0.8 -0.05
v -0.2 -0.7 -0.05
v -0.2 -0.4 -0.05
v -0.2 0 -0.05
v -0.2 0.1 -0.05
v -0.1 -0.8 -0.05
v -0.1 -0.7 -0.05
v -0.1 -0.6 -0.05
v -0.1 -0.5 -0.05
v -0.1 -0.4 -0.05
v -0.1 0 -0.05
v -0.1 0.1 -0.05
v 0 -0.6 -0.05
v 0 -0.5 -0.05
v 0 -0.4 -0.05
v 0.1 -0.7 -0.05
v 0.1 -0.6 -0.05
v 0.1 0 -0.05
v 0.1 0.1 -0.05
v 0.2 -0.8 -0.05
v 0.2 -0.4 -0.05
v 0.2 0 -0.05
v 0.2 0.1 -0.05
v -0.3 -0.4 -0.15
v -0.3 0 -0.15
v -0.2 -0.1 -0.15
v -0.2 0 -0.15
v -0.1 -0.4 -0.15
v -0.1 -0.3 -0.15
v -0.1 -0.1 -0.15
v -0.1 0 -0.15
v 0 -0.4 -0.15
v 0 -0.3 -0.15
v 0.1 -0.3 -0.15
v 0.1 -0.2 -0.15
v 0.2 -0.3 -0.15
v 0.2 -0.2 -0.15
v 0.3 -0.4 -0.15
v 0.3 0 -0.15
v -0.1 -0.7 -0.25
v -0.1 -0.6 -0.25
v 0 -0.7 -0.25
v 0 -0.6 -0.25
v 0.1 -0.7 -0.25
v 0.1 -0.6 -0.25
v -0.1 -0.8 -0.45
v -0.1 -0.7 -0.45
v 0 -0.8 -0.45
v 0 -0.7 -0.45
v 0.1 -0.8 -0.45
v 0.1 -0.7 -0.45
v -0.1 -0.9 -0.75
v -0.1 -0.8 -0.75
v 0.1 -0.9 -0.75
v 0.1 -0.8 -0.75
v -0.2 -1 0.15
v -0.1 -1 0.15
v 0.1 -1 0.15
v 0.2 -1 0.15
v -0.2 -1 0.05
v -0.1 -1 0.05
v 0.1 -1 0.05
v 0.2 -1 0.05
v -0.1 -0.9 -0.35
v 0.1 -0.9 -0.35
v -0.1 -0.9 -0.55
v 0.1 -0.9 -0.55
v -0.1 -0.9 -0.65
v 0.1 -0.9 -0.65
v -0.1 -0.9 -0.75
v 0.1 -0.9 -0.75
v -0.2 -0.8 0.25
v -0.1 -0.8 0.25
v 0 -0.8 0.25
v 0.2 -0.8 0.25
v -0.2 -0.8 0.15
v -0.1 -0.8 0.15
v 0 -0.8 0.15
v 0.1 -0.8 0.15
v 0.2 -0.8 0.15
v -0.2 -0.8 0.05
v -0.1 -0.8 0.05
v 0.1 -0.8 0.05
v 0.2 -0.8 0.05
v -0.2 -0.8 -0.05
v -0.1 -0.8 -0.05
v 0.2 -0.8 -0.05
v -0.1 -0.8 -0.15
v 0.1 -0.8 -0.15
v -0.1 -0.8 -0.35
v 0.1 -0.8 -0.35
v -0.3 -0.7 0.15
v -0.2 -0.7 0.15
v 0.2 -0.7 0.15
v 0.3 -0.7 0.15
v -0.3 -0.7 0.05
v -0.2 -0.7 0.05
v 0.2 -0.7 0.05
v 0.3 -0.7 0.05
v -0.1 -0.7 -0.05
v 0.1 -0.7 -0.05
v -0.1 -0.7 -0.15
v 0.1 -0.7 -0.15
v -0.3 -0.4 0.35
v 0.3 -0.4 0.35
v -0.2 -0.4 0.25
v -0.1 -0.4 0.25
v 0.1 -0.4 0.25
v 0.2 -0.4 0.25
v -0.3 -0.4 0.15
v -0.2 -0.4 0.15
v 0.2 -0.4 0.15
v 0.3 -0.4 0.15
v -0.3 -0.4 0.05
v -0.2 -0.4 0.05
v 0.2 -0.4 0.05
v 0.3 -0.4 0.05
v -0.2 -0.4 -0.05
v -0.1 -0.4 -0.05
v 0 -0.4 -0.05
v 0.2 -0.4 -0.05
v -0.3 -0.4 -0.15
v -0.1 -0.4 -0.15
v 0 -0.4 -0.15
v 0.3 -0.4 -0.15
v -0.1 -0.3 0.45
v 0.1 -0.3 0.45
v -0.1 -0.3 0.35
v 0.1 -0.3 0.35
v -0.1 -0.8 -0.45
v 0 -0.8 -0.45
v 0.1 -0.8 -0.45
v -0.1 -0.8 -0.55
v 0.1 -0.8 -0.55
v -0.1 -0.8 -0.65
v 0.1 -0.8 -0.65
v -0.1 -0.8 -0.75
v 0.1 -0.8 -0.75
v -0.1 -0.7 -0.25
v 0 -0.7 -0.25
v 0.1 -0.7 -0.25
v -0.1 -0.7 -0.35
v 0 -0.7 -0.35
v -0.1 -0.7 -0.45
v 0 -0.7 -0.45
v 0.1 -0.7 -0.45
v -0.1 -0.6 -0.05
v 0 -0.6 -0.05
v 0.1 -0.6 -0.05
v 0 -0.6 -0.15
v 0.1 -0.6 -0.15
v -0.1 -0.6 -0.25
v 0 -0.6 -0.25
v 0.1 -0.6 -0.25
v -0.1 -0.2 0.45
v 0.1 -0.2 0.45
v -0.1 -0.2 0.35
v 0.1 -0.2 0.35
v -0.3 0 0.35
v 0 0 0.35
v 0.1 0 0.35
v 0.3 0 0.35
v 0 0 0.25
v 0.1 0 0.25
v -0.3 0 0.15
v -0.2 0 0.15
v -0.1 0 0.15
v 0.1 0 0.15
v 0.2 0 0.15
v 0.3 0 0.15
v -0.3 0 0.05
v -0.2 0 0.05
v -0.1 0 0.05
v 0.1 0 0.05
v 0.2 0 0.05
v 0.3 0 0.05
v -0.2 0 -0.05
v -0.1 0 -0.05
v 0.1 0 -0.05
v 0.2 0 -0.05
v -0.3 0 -0.15
v -0.2 0 -0.15
v -0.1 0 -0.15
v 0.3 0 -0.15
v -0.2 0.1 0.05
v -0.1 0.1 0.05
v 0.1 0.1 0.05
v 0.2 0.1 0.05
v -0.2 0.1 -0.05
v -0.1 0.1 -0.05
v 0.1 0.1 -0.05
v 0.2 0.1 -0.05
v -0.3 0.2 0.15
v -0.1 0.2 0.15
v 0.1 0.2 0.15
v 0.3 0.2 0.15
v -0.3 0.2 0.05
v -0.1 0.2 0.05
v 0.1 0.2 0.05
v 0.3 0.2 0.05

# faces
f 4/1/1 2/1/1 1/1/1
f 5/1/1 2/1/1 4/1/1
f 7/1/1 4/1/1 3/1/1
f 7/1/1 6/1/1 5/1/1
f 7/1/1 5/1/1 4/1/1
f 8/1/1 6/1/1 7/1/1
f 9/3/1 8/3/1 7/3/1
f 10/1/1 6/1/1 8/1/1
f 10/3/1 8/3/1 9/3/1
f 11/1/1 10/1/1 9/1/1
f 12/1/1 6/1/1 10/1/1
f 12/1/1 10/1/1 11/1/1
f 13/1/1 6/1/1 12/1/1
f 14/1/1 6/1/1 13/1/1
f 15/1/1 13/1/1 12/1/1
f 16/1/1 13/1/1 15/1/1
f 19/3/1 18/3/1 17/3/1
f 20/3/1 18/3/1 19/3/1
f 22/1/1 20/1/1 19/1/1
f 23/1/1 20/1/1 22/1/1
f 25/1/1 23/1/1 22/1/1
f 25/1/1 22/1/1 21/1/1
f 26/3/1 24/3/1 23/3/1
f 26/1/1 23/1/1 25/1/1
f 27/3/1 24/3/1 26/3/1
f 28/1/1 25/1/1 21/1/1
f 29/1/1 25/1/1 28/1/1
f 30/3/1 29/3/1 28/3/1
f 31/3/1 29/3/1 30/3/1
f 32/1/1 27/1/1 26/1/1
f 33/1/1 27/1/1 32/1/1
f 36/1/1 35/1/1 34/1/1
f 37/1/1 35/1/1 36/1/1
f 43/1/1 39/1/1 38/1/1
f 44/1/1 39/1/1 43/1/1
f 45/3/1 40/3/1 39/3/1
f 45/1/1 39/1/1 44/1/1
f 46/4/1 41/4/1 40/4/1
f 46/3/1 40/3/1 45/3/1
f 47/4/1 41/4/1 46/4/1
f 49/1/1 43/1/1 42/1/1
f 50/1/1 43/1/1 49/1/1
f 51/3/1 44/3/1 43/3/1
f 51/1/1 43/1/1 50/1/1
f 52/3/1 44/3/1 51/3/1
f 53/1/1 50/1/1 49/1/1
f 53/1/1 49/1/1 48/1/1
f 54/1/1 50/1/1 53/1/1
f 57/3/1 56/3/1 55/3/1
f 58/3/1 56/3/1 57/3/1
f 61/3/1 60/3/1 59/3/1
f 62/3/1 60/3/1 61/3/1
f 63/1/1 62/1/1 61/1/1
f 64/1/1 62/1/1 63/1/1
f 68/4/1 66/4/1 65/4/1
f 69/1/1 67/1/1 66/1/1
f 69/4/1 66/4/1 68/4/1
f 70/1/1 67/1/1 69/1/1
f 71/1/1 69/1/1 68/1/1
f 72/1/1 69/1/1 71/1/1
f 73/3/2 74/3/2 75/3/2
f 75/3/2 74/3/2 76/3/2
f 75/1/2 76/1/2 77/1/2
f 77/1/2 76/1/2 78/1/2
f 79/4/2 80/4/2 82/4/2
f 80/1/2 81/1/2 83/1/2
f 82/4/2 80/4/2 83/4/2
f 83/1/2 81/1/2 84/1/2
f 82/1/2 83/1/2 85/1/2
f 85/1/2 83/1/2 86/1/2
f 87/1/2 88/1/2 92/1/2
f 92/1/2 88/1/2 93/1/2
f 88/3/2 89/3/2 94/3/2
f 93/1/2 88/1/2 94/1/2
f 89/4/2 90/4/2 95/4/2
f 94/3/2 89/3/2 95/3/2
f 95/4/2 90/4/2 96/4/2
f 92/1/2 93/1/2 98/1/2
f 91/1/2 92/1/2 98/1/2
f 98/1/2 93/1/2 99/1/2
f 99/1/2 93/1/2 100/1/2
f 97/1/2 98/1/2 101/1/2
f 98/3/2 99/3/2 102/3/2
f 101/1/2 98/1/2 102/1/2
f 102/3/2 99/3/2 103/3/2
f 104/3/2 105/3/2 106/3/2
f 106/3/2 105/3/2 107/3/2
f 108/3/2 109/3/2 110/3/2
f 110/3/2 109/3/2 111/3/2
f 110/1/2 111/1/2 113/1/2
f 113/1/2 111/1/2 114/1/2
f 113/1/2 114/1/2 116/1/2
f 114/1/2 115/1/2 116/1/2
f 112/1/2 113/1/2 116/1/2
f 116/1/2 115/1/2 117/1/2
f 112/1/2 116/1/2 118/1/2
f 118/1/2 116/1/2 119/1/2
f 118/3/2 119/3/2 120/3/2
f 120/3/2 119/3/2 121/3/2
f 120/1/2 121/1/2 122/1/2
f 122/1/2 121/1/2 123/1/2
f 117/1/2 115/1/2 124/1/2
f 124/1/2 115/1/2 125/1/2
f 126/1/2 127/1/2 128/1/2
f 128/1/2 127/1/2 129/1/2
f 130/1/2 131/1/2 133/1/2
f 133/1/2 131/1/2 134/1/2
f 132/1/2 133/1/2 136/1/2
f 134/1/2 135/1/2 136/1/2
f 133/1/2 134/1/2 136/1/2
f 136/1/2 135/1/2 137/1/2
f 136/3/2 137/3/2 138/3/2
f 137/1/2 135/1/2 139/1/2
f 138/3/2 137/3/2 139/3/2
f 138/1/2 139/1/2 140/1/2
f 139/1/2 135/1/2 141/1/2
f 140/1/2 139/1/2 141/1/2
f 141/1/2 135/1/2 142/1/2
f 142/1/2 135/1/2 143/1/2
f 141/1/2 142/1/2 144/1/2
f 144/1/2 142/1/2 145/1/2
f 148/3/3 147/3/3 146/3/3
f 149/3/3 147/3/3 148/3/3
f 154/1/3 151/1/3 150/1/3
f 154/3/3 152/3/3 151/3/3
f 155/1/3 153/1/3 152/1/3
f 155/3/3 152/3/3 154/3/3
f 156/1/3 154/1/3 150/1/3
f 156/1/3 155/1/3 154/1/3
f 157/1/3 155/1/3 156/1/3
f 158/1/3 153/1/3 155/1/3
f 158/1/3 155/1/3 157/1/3
f 159/1/3 153/1/3 158/1/3
f 160/1/3 156/1/3 150/1/3
f 161/1/3 158/1/3 157/1/3
f 162/3/3 159/3/3 158/3/3
f 162/1/3 158/1/3 161/1/3
f 163/3/3 159/3/3 162/3/3
f 164/1/3 161/1/3 160/1/3
f 164/1/3 162/1/3 161/1/3
f 164/1/3 163/1/3 162/1/3
f 165/1/3 163/1/3 164/1/3
f 166/1/3 160/1/3 150/1/3
f 166/1/3 164/1/3 160/1/3
f 167/3/3 165/3/3 164/3/3
f 167/1/3 164/1/3 166/1/3
f 168/1/3 163/1/3 165/1/3
f 168/3/3 165/3/3 167/3/3
f 169/1/3 163/1/3 168/1/3
f 173/1/3 171/1/3 170/1/3
f 174/1/3 171/1/3 173/1/3
f 175/3/3 172/3/3 171/3/3
f 175/1/3 171/1/3 174/1/3
f 176/3/3 172/3/3 175/3/3
f 177/3/3 174/3/3 173/3/3
f 178/2/3 175/2/3 174/2/3
f 178/3/3 174/3/3 177/3/3
f 178/2/3 176/2/3 175/2/3
f 179/1/3 178/1/3 177/1/3
f 179/2/3 176/2/3 178/2/3
f 180/2/3 176/2/3 179/2/3
f 181/2/3 176/2/3 180/2/3
f 182/2/3 176/2/3 181/2/3
f 183/1/3 179/1/3 177/1/3
f 183/1/3 180/1/3 179/1/3
f 184/3/3 181/3/3 180/3/3
f 184/1/3 180/1/3 183/1/3
f 185/1/3 182/1/3 181/1/3
f 185/3/3 181/3/3 184/3/3
f 186/1/3 182/1/3 185/1/3
f 194/1/3 188/1/3 187/1/3
f 195/1/3 188/1/3 194/1/3
f 196/1/3 188/1/3 195/1/3
f 197/1/3 190/1/3 189/1/3
f 198/1/3 190/1/3 197/1/3
f 199/3/3 192/3/3 191/3/3
f 200/1/3 193/1/3 192/1/3
f 200/3/3 192/3/3 199/3/3
f 201/1/3 193/1/3 200/1/3
f 202/4/3 198/4/3 197/4/3
f 203/1/3 190/1/3 198/1/3
f 203/4/3 198/4/3 202/4/3
f 204/1/3 190/1/3 203/1/3
f 211/3/3 206/3/3 205/3/3
f 212/1/3 207/1/3 206/1/3
f 212/3/3 206/3/3 211/3/3
f 213/1/3 207/1/3 212/1/3
f 218/4/3 209/4/3 208/4/3
f 219/1/3 210/1/3 209/1/3
f 219/4/3 209/4/3 218/4/3
f 220/1/3 217/1/3 216/1/3
f 220/1/3 216/1/3 215/1/3
f 220/1/3 215/1/3 214/1/3
f 221/1/3 217/1/3 220/1/3
f 222/1/3 219/1/3 218/1/3
f 223/1/3 210/1/3 219/1/3
f 223/1/3 219/1/3 222/1/3
f 226/1/3 225/1/3 224/1/3
f 227/1/3 225/1/3 226/1/3
f 230/1/3 229/1/3 228/1/3
f 231/1/3 229/1/3 230/1/3
f 232/1/4 233/1/4 239/1/4
f 239/1/4 233/1/4 240/1/4
f 234/1/4 235/1/4 241/1/4
f 241/1/4 235/1/4 242/1/4
f 236/3/4 237/3/4 243/3/4
f 237/1/4 238/1/4 244/1/4
f 243/3/4 237/3/4 244/3/4
f 244/1/4 238/1/4 245/1/4
f 242/1/4 235/1/4 246/1/4
f 246/1/4 235/1/4 247/1/4
f 248/3/4 249/3/4 253/3/4
f 249/1/4 250/1/4 254/1/4
f 253/3/4 249/3/4 254/3/4
f 254/1/4 250/1/4 255/1/4
f 251/1/4 252/1/4 259/1/4
f 256/1/4 257/1/4 260/1/4
f 260/1/4 257/1/4 261/1/4
f 258/1/4 259/1/4 262/1/4
f 259/1/4 252/1/4 263/1/4
f 262/1/4 259/1/4 263/1/4
f 264/3/4 265/3/4 269/3/4
f 265/1/4 266/1/4 270/1/4
f 269/3/4 265/3/4 270/3/4
f 270/1/4 266/1/4 271/1/4
f 271/1/4 266/1/4 272/1/4
f 272/1/4 266/1/4 273/1/4
f 267/1/4 268/1/4 274/1/4
f 274/1/4 268/1/4 275/1/4
f 271/3/4 272/3/4 276/3/4
f 272/1/4 273/1/4 277/1/4
f 276/3/4 272/3/4 277/3/4
f 277/1/4 273/1/4 278/1/4
f 269/1/4 270/1/4 279/1/4
f 276/1/4 277/1/4 280/1/4
f 277/1/4 278/1/4 280/1/4
f 279/1/4 280/1/4 283/1/4
f 269/1/4 279/1/4 283/1/4
f 280/1/4 278/1/4 284/1/4
f 283/1/4 280/1/4 284/1/4
f 281/1/4 282/1/4 285/1/4
f 285/1/4 282/1/4 286/1/4
f 287/1/4 288/1/4 289/1/4
f 289/1/4 288/1/4 290/1/4
f 287/1/4 289/1/4 291/1/4
f 291/1/4 289/1/4 292/1/4
f 289/3/4 290/3/4 293/3/4
f 292/1/4 289/1/4 293/1/4
f 293/3/4 290/3/4 294/3/4
f 291/3/4 292/3/4 295/3/4
f 292/1/4 293/1/4 296/1/4
f 295/3/4 292/3/4 296/3/4
f 293/1/4 294/1/4 296/1/4
f 295/1/4 296/1/4 297/1/4
f 296/1/4 294/1/4 297/1/4
f 297/1/4 294/1/4 298/1/4
f 295/1/4 297/1/4 299/1/4
f 297/3/4 298/3/4 299/3/4
f 298/1/4 294/1/4 300/1/4
f 299/3/4 298/3/4 300/3/4
f 295/1/4 299/1/4 301/1/4
f 299/1/4 300/1/4 301/1/4
f 300/1/4 294/1/4 302/1/4
f 301/1/4 300/1/4 302/1/4
f 303/1/4 304/1/4 305/1/4
f 305/1/4 304/1/4 306/1/4
f 305/3/4 306/3/4 307/3/4
f 307/3/4 306/3/4 308/3/4
f 309/3/4 310/3/4 311/3/4
f 311/3/4 310/3/4 312/3/4
f 311/1/4 312/1/4 313/1/4
f 313/1/4 312/1/4 314/1/4
f 315/4/4 316/4/4 317/4/4
f 317/4/4 316/4/4 318/4/4
f 323/3/5 320/3/5 319/3/5
f 324/3/5 320/3/5 323/3/5
f 325/3/5 322/3/5 321/3/5
f 326/3/5 322/3/5 325/3/5
f 329/1/5 328/1/5 327/1/5
f 330/1/5 328/1/5 329/1/5
f 331/3/5 330/3/5 329/3/5
f 332/3/5 330/3/5 331/3/5
f 333/4/5 332/4/5 331/4/5
f 334/4/5 332/4/5 333/4/5
f 339/1/5 336/1/5 335/1/5
f 340/3/5 337/3/5 336/3/5
f 340/1/5 336/1/5 339/1/5
f 341/1/5 338/1/5 337/1/5
f 341/3/5 337/3/5 340/3/5
f 342/1/5 338/1/5 341/1/5
f 343/1/5 338/1/5 342/1/5
f 345/1/5 341/1/5 340/1/5
f 345/1/5 342/1/5 341/1/5
f 346/1/5 342/1/5 345/1/5
f 348/3/5 345/3/5 344/3/5
f 349/1/5 347/1/5 346/1/5
f 349/3/5 345/3/5 348/3/5
f 349/1/5 346/1/5 345/1/5
f 350/1/5 347/1/5 349/1/5
f 353/1/5 352/1/5 351/1/5
f 354/1/5 352/1/5 353/1/5
f 359/1/5 356/1/5 355/1/5
f 360/1/5 356/1/5 359/1/5
f 361/1/5 358/1/5 357/1/5
f 362/1/5 358/1/5 361/1/5
f 365/1/5 364/1/5 363/1/5
f 366/1/5 364/1/5 365/1/5
f 369/1/5 368/1/5 367/1/5
f 370/1/5 368/1/5 369/1/5
f 371/1/5 368/1/5 370/1/5
f 372/1/5 368/1/5 371/1/5
f 373/1/5 369/1/5 367/1/5
f 374/1/5 369/1/5 373/1/5
f 375/1/5 368/1/5 372/1/5
f 376/1/5 368/1/5 375/1/5
f 381/1/5 378/1/5 377/1/5
f 384/1/5 380/1/5 379/1/5
f 385/1/5 381/1/5 377/1/5
f 385/1/5 382/1/5 381/1/5
f 386/3/5 383/3/5 382/3/5
f 386/1/5 382/1/5 385/1/5
f 387/1/5 384/1/5 383/1/5
f 387/3/5 383/3/5 386/3/5
f 388/1/5 380/1/5 384/1/5
f 388/1/5 384/1/5 387/1/5
f 391/3/5 390/3/5 389/3/5
f 392/3/5 390/3/5 391/3/5
f 393/1/6 394/1/6 396/1/6
f 394/1/6 395/1/6 396/1/6
f 396/1/6 395/1/6 397/1/6
f 396/3/6 397/3/6 398/3/6
f 398/3/6 397/3/6 399/3/6
f 398/4/6 399/4/6 400/4/6
f 400/4/6 399/4/6 401/4/6
f 402/1/6 403/1/6 405/1/6
f 403/1/6 404/1/6 405/1/6
f 405/1/6 404/1/6 406/1/6
f 405/3/6 406/3/6 407/3/6
f 406/1/6 404/1/6 408/1/6
f 407/3/6 406/3/6 408/3/6
f 408/1/6 404/1/6 409/1/6
f 410/1/6 411/1/6 413/1/6
f 411/1/6 412/1/6 413/1/6
f 413/1/6 412/1/6 414/1/6
f 410/1/6 413/1/6 415/1/6
f 413/3/6 414/3/6 416/3/6
f 415/1/6 413/1/6 416/1/6
f 416/3/6 414/3/6 417/3/6
f 418/3/6 419/3/6 420/3/6
f 420/3/6 419/3/6 421/3/6
f 422/1/6 423/1/6 426/1/6
f 423/3/6 424/3/6 426/3/6
f 424/1/6 425/1/6 427/1/6
f 426/3/6 424/3/6 427/3/6
f 422/1/6 426/1/6 428/1/6
f 426/1/6 427/1/6 428/1/6
f 428/1/6 427/1/6 429/1/6
f 429/1/6 427/1/6 430/1/6
f 427/1/6 425/1/6 431/1/6
f 430/1/6 427/1/6 431/1/6
f 431/1/6 425/1/6 432/1/6
f 432/1/6 425/1/6 433/1/6
f 430/1/6 431/1/6 436/1/6
f 436/1/6 431/1/6 437/1/6
f 434/1/6 435/1/6 440/1/6
f 436/1/6 437/1/6 441/1/6
f 441/1/6 437/1/6 442/1/6
f 438/1/6 439/1/6 443/1/6
f 434/1/6 440/1/6 444/1/6
f 440/3/6 441/3/6 445/3/6
f 444/1/6 440/1/6 445/1/6
f 441/1/6 442/1/6 446/1/6
f 445/3/6 441/3/6 446/3/6
f 442/1/6 443/1/6 446/1/6
f 443/1/6 439/1/6 447/1/6
f 446/1/6 443/1/6 447/1/6
f 448/1/6 449/1/6 452/1/6
f 452/1/6 449/1/6 453/1/6
f 450/1/6 451/1/6 454/1/6
f 454/1/6 451/1/6 455/1/6
f 456/1/6 457/1/6 460/1/6
f 460/1/6 457/1/6 461/1/6
f 458/1/6 459/1/6 462/1/6
f 462/1/6 459/1/6 463/1/6
