# MagicaVoxel @ Ephtracy

# group
o 

# material
mtllib Player_Fox.vox-0.mtl
usemtl palette

# normals
vn -1 0 0
vn 1 0 0
vn 0 0 1
vn 0 0 -1
vn 0 -1 0
vn 0 1 0

# texcoords
vt 0.939453 0.5
vt 0.974609 0.5
vt 0.978516 0.5

# verts
v -0.6 0 0.15
v -0.6 0 0.05
v -0.6 0.3 0.15
v -0.6 0.3 0.05
v -0.5 -0.1 0.15
v -0.5 -0.1 0.05
v -0.5 0 0.15
v -0.5 0 0.05
v -0.4 -0.2 0.15
v -0.4 -0.2 0.05
v -0.4 -0.1 0.15
v -0.4 -0.1 0.05
v -0.4 -0.1 -0.05
v -0.4 0.1 0.05
v -0.4 0.1 -0.05
v -0.3 -0.7 0.15
v -0.3 -0.7 0.05
v -0.3 -0.4 0.35
v -0.3 -0.4 0.15
v -0.3 -0.4 0.05
v -0.3 -0.4 -0.15
v -0.3 -0.2 0.35
v -0.3 -0.2 0.25
v -0.3 -0.2 0.15
v -0.3 -0.2 0.05
v -0.3 -0.1 0.35
v -0.3 -0.1 0.25
v -0.3 -0.1 0.15
v -0.3 -0.1 0.05
v -0.3 -0.1 -0.05
v -0.3 0 0.35
v -0.3 0 0.15
v -0.3 0 -0.05
v -0.3 0 -0.15
v -0.2 -1 0.15
v -0.2 -1 0.05
v -0.2 -0.8 0.25
v -0.2 -0.8 0.15
v -0.2 -0.8 0.05
v -0.2 -0.8 -0.05
v -0.2 -0.7 0.15
v -0.2 -0.7 0.05
v -0.2 -0.4 0.45
v -0.2 -0.4 0.35
v -0.2 -0.4 0.25
v -0.2 -0.4 0.15
v -0.2 -0.4 0.05
v -0.2 -0.4 -0.05
v -0.2 -0.2 0.45
v -0.2 -0.2 0.35
v -0.1 -0.9 -0.35
v -0.1 -0.9 -0.45
v -0.1 -0.9 -0.55
v -0.1 -0.8 -0.25
v -0.1 -0.8 -0.35
v -0.1 -0.8 -0.45
v -0.1 -0.8 -0.55
v -0.1 -0.7 -0.05
v -0.1 -0.7 -0.25
v -0.1 -0.7 -0.35
v -0.1 -0.7 -0.45
v -0.1 -0.6 -0.05
v -0.1 -0.6 -0.35
v -0.1 -0.3 0.55
v -0.1 -0.3 0.45
v -0.1 -0.2 0.55
v -0.1 -0.2 0.45
v 0.1 -1 0.15
v 0.1 -1 0.05
v 0.1 -0.8 0.15
v 0.1 -0.8 0.05
v 0.1 0 0.15
v 0.1 0 0.05
v 0.1 0.1 0.15
v 0.1 0.1 0.05
v 0.2 0 0.05
v 0.2 0 -0.05
v 0.2 0.1 0.15
v 0.2 0.1 0.05
v 0.2 0.1 -0.05
v 0.2 0.2 0.15
v 0.2 0.2 0.05
v 0.3 0.2 0.15
v 0.3 0.2 0.05
v 0.3 0.3 0.15
v 0.3 0.3 0.05
v -0.3 0.2 0.15
v -0.3 0.2 0.05
v -0.3 0.3 0.15
v -0.3 0.3 0.05
v -0.2 0 0.05
v -0.2 0 -0.05
v -0.2 0.1 0.15
v -0.2 0.1 0.05
v -0.2 0.1 -0.05
v -0.2 0.2 0.15
v -0.2 0.2 0.05
v -0.1 -1 0.15
v -0.1 -1 0.05
v -0.1 -0.8 0.15
v -0.1 -0.8 0.05
v -0.1 0 0.15
v -0.1 0 0.05
v -0.1 0.1 0.15
v -0.1 0.1 0.05
v 0.1 -0.9 -0.35
v 0.1 -0.9 -0.45
v 0.1 -0.9 -0.55
v 0.1 -0.8 -0.25
v 0.1 -0.8 -0.35
v 0.1 -0.8 -0.45
v 0.1 -0.8 -0.55
v 0.1 -0.7 -0.05
v 0.1 -0.7 -0.25
v 0.1 -0.7 -0.35
v 0.1 -0.7 -0.45
v 0.1 -0.6 -0.05
v 0.1 -0.6 -0.35
v 0.1 -0.3 0.55
v 0.1 -0.3 0.45
v 0.1 -0.2 0.55
v 0.1 -0.2 0.45
v 0.2 -1 0.15
v 0.2 -1 0.05
v 0.2 -0.8 0.25
v 0.2 -0.8 0.15
v 0.2 -0.8 0.05
v 0.2 -0.8 -0.05
v 0.2 -0.7 0.15
v 0.2 -0.7 0.05
v 0.2 -0.4 0.45
v 0.2 -0.4 0.35
v 0.2 -0.4 0.25
v 0.2 -0.4 0.15
v 0.2 -0.4 0.05
v 0.2 -0.4 -0.05
v 0.2 -0.2 0.45
v 0.2 -0.2 0.35
v 0.3 -0.7 0.15
v 0.3 -0.7 0.05
v 0.3 -0.4 0.35
v 0.3 -0.4 0.15
v 0.3 -0.4 0.05
v 0.3 -0.4 -0.15
v 0.3 -0.2 0.35
v 0.3 -0.2 0.25
v 0.3 -0.2 0.15
v 0.3 -0.2 0.05
v 0.3 -0.1 0.35
v 0.3 -0.1 0.25
v 0.3 -0.1 0.15
v 0.3 -0.1 0.05
v 0.3 -0.1 -0.05
v 0.3 0 0.35
v 0.3 0 0.15
v 0.3 0 -0.05
v 0.3 0 -0.15
v 0.4 -0.2 0.15
v 0.4 -0.2 0.05
v 0.4 -0.1 0.15
v 0.4 -0.1 0.05
v 0.4 -0.1 -0.05
v 0.4 0.1 0.05
v 0.4 0.1 -0.05
v 0.5 -0.1 0.15
v 0.5 -0.1 0.05
v 0.5 0 0.15
v 0.5 0 0.05
v 0.6 0 0.15
v 0.6 0 0.05
v 0.6 0.3 0.15
v 0.6 0.3 0.05
v -0.1 -0.3 0.55
v -0.1 -0.2 0.55
v 0.1 -0.3 0.55
v 0.1 -0.2 0.55
v -0.2 -0.4 0.45
v -0.2 -0.2 0.45
v -0.1 -0.3 0.45
v -0.1 -0.2 0.45
v 0.1 -0.3 0.45
v 0.1 -0.2 0.45
v 0.2 -0.4 0.45
v 0.2 -0.2 0.45
v -0.3 -0.4 0.35
v -0.3 -0.2 0.35
v -0.3 -0.1 0.35
v -0.3 0 0.35
v -0.2 -0.4 0.35
v -0.2 -0.2 0.35
v -0.2 -0.1 0.35
v -0.1 -0.2 0.35
v 0.1 -0.2 0.35
v 0.2 -0.4 0.35
v 0.2 -0.2 0.35
v 0.2 -0.1 0.35
v 0.3 -0.4 0.35
v 0.3 -0.2 0.35
v 0.3 -0.1 0.35
v 0.3 0 0.35
v -0.2 -0.8 0.25
v -0.2 -0.4 0.25
v -0.1 -0.7 0.25
v -0.1 -0.4 0.25
v 0.1 -0.7 0.25
v 0.1 -0.4 0.25
v 0.2 -0.8 0.25
v 0.2 -0.4 0.25
v -0.6 0 0.15
v -0.6 0.3 0.15
v -0.5 -0.1 0.15
v -0.5 0 0.15
v -0.5 0.2 0.15
v -0.4 -0.2 0.15
v -0.4 -0.1 0.15
v -0.4 0.1 0.15
v -0.3 -0.7 0.15
v -0.3 -0.4 0.15
v -0.3 -0.2 0.15
v -0.3 -0.1 0.15
v -0.3 0 0.15
v -0.3 0.2 0.15
v -0.3 0.3 0.15
v -0.2 -1 0.15
v -0.2 -0.8 0.15
v -0.2 -0.7 0.15
v -0.2 -0.4 0.15
v -0.2 0 0.15
v -0.2 0.1 0.15
v -0.2 0.2 0.15
v -0.1 -1 0.15
v -0.1 -0.8 0.15
v -0.1 0 0.15
v -0.1 0.1 0.15
v 0.1 -1 0.15
v 0.1 -0.8 0.15
v 0.1 0 0.15
v 0.1 0.1 0.15
v 0.2 -1 0.15
v 0.2 -0.8 0.15
v 0.2 -0.7 0.15
v 0.2 -0.4 0.15
v 0.2 0 0.15
v 0.2 0.1 0.15
v 0.2 0.2 0.15
v 0.3 -0.7 0.15
v 0.3 -0.4 0.15
v 0.3 -0.2 0.15
v 0.3 -0.1 0.15
v 0.3 0 0.15
v 0.3 0.2 0.15
v 0.3 0.3 0.15
v 0.4 -0.2 0.15
v 0.4 -0.1 0.15
v 0.4 0.1 0.15
v 0.5 -0.1 0.15
v 0.5 0 0.15
v 0.5 0.2 0.15
v 0.6 0 0.15
v 0.6 0.3 0.15
v -0.1 -0.8 -0.25
v -0.1 -0.7 -0.25
v 0.1 -0.8 -0.25
v 0.1 -0.7 -0.25
v -0.1 -0.9 -0.35
v -0.1 -0.8 -0.35
v 0.1 -0.9 -0.35
v 0.1 -0.8 -0.35
v -0.6 0 0.05
v -0.6 0.3 0.05
v -0.5 -0.1 0.05
v -0.5 0 0.05
v -0.5 0.2 0.05
v -0.4 -0.2 0.05
v -0.4 -0.1 0.05
v -0.4 0.1 0.05
v -0.3 -0.7 0.05
v -0.3 -0.4 0.05
v -0.3 -0.2 0.05
v -0.3 -0.1 0.05
v -0.3 0.2 0.05
v -0.3 0.3 0.05
v -0.2 -1 0.05
v -0.2 -0.8 0.05
v -0.2 -0.7 0.05
v -0.2 -0.4 0.05
v -0.2 0 0.05
v -0.2 0.1 0.05
v -0.2 0.2 0.05
v -0.1 -1 0.05
v -0.1 -0.8 0.05
v -0.1 0 0.05
v -0.1 0.1 0.05
v 0.1 -1 0.05
v 0.1 -0.8 0.05
v 0.1 0 0.05
v 0.1 0.1 0.05
v 0.2 -1 0.05
v 0.2 -0.8 0.05
v 0.2 -0.7 0.05
v 0.2 -0.4 0.05
v 0.2 0 0.05
v 0.2 0.1 0.05
v 0.2 0.2 0.05
v 0.3 -0.7 0.05
v 0.3 -0.4 0.05
v 0.3 -0.2 0.05
v 0.3 -0.1 0.05
v 0.3 0.2 0.05
v 0.3 0.3 0.05
v 0.4 -0.2 0.05
v 0.4 -0.1 0.05
v 0.4 0.1 0.05
v 0.5 -0.1 0.05
v 0.5 0 0.05
v 0.5 0.2 0.05
v 0.6 0 0.05
v 0.6 0.3 0.05
v -0.4 -0.1 -0.05
v -0.4 0.1 -0.05
v -0.3 -0.1 -0.05
v -0.3 0 -0.05
v -0.2 -0.8 -0.05
v -0.2 -0.4 -0.05
v -0.2 0 -0.05
v -0.2 0.1 -0.05
v -0.1 -0.7 -0.05
v -0.1 -0.6 -0.05
v 0.1 -0.7 -0.05
v 0.1 -0.6 -0.05
v 0.2 -0.8 -0.05
v 0.2 -0.4 -0.05
v 0.2 0 -0.05
v 0.2 0.1 -0.05
v 0.3 -0.1 -0.05
v 0.3 0 -0.05
v 0.4 -0.1 -0.05
v 0.4 0.1 -0.05
v -0.3 -0.4 -0.15
v -0.3 0 -0.15
v 0.3 -0.4 -0.15
v 0.3 0 -0.15
v -0.1 -0.7 -0.35
v -0.1 -0.6 -0.35
v 0.1 -0.7 -0.35
v 0.1 -0.6 -0.35
v -0.1 -0.8 -0.45
v -0.1 -0.7 -0.45
v 0.1 -0.8 -0.45
v 0.1 -0.7 -0.45
v -0.1 -0.9 -0.55
v -0.1 -0.8 -0.55
v 0.1 -0.9 -0.55
v 0.1 -0.8 -0.55
v -0.2 -1 0.15
v -0.1 -1 0.15
v 0.1 -1 0.15
v 0.2 -1 0.15
v -0.2 -1 0.05
v -0.1 -1 0.05
v 0.1 -1 0.05
v 0.2 -1 0.05
v -0.1 -0.9 -0.35
v 0.1 -0.9 -0.35
v -0.1 -0.9 -0.45
v 0.1 -0.9 -0.45
v -0.1 -0.9 -0.55
v 0.1 -0.9 -0.55
v -0.2 -0.8 0.25
v 0.2 -0.8 0.25
v -0.2 -0.8 0.15
v -0.1 -0.8 0.15
v 0.1 -0.8 0.15
v 0.2 -0.8 0.15
v -0.2 -0.8 0.05
v -0.1 -0.8 0.05
v 0.1 -0.8 0.05
v 0.2 -0.8 0.05
v -0.2 -0.8 -0.05
v 0.2 -0.8 -0.05
v -0.1 -0.8 -0.25
v 0.1 -0.8 -0.25
v -0.1 -0.8 -0.35
v 0.1 -0.8 -0.35
v -0.3 -0.7 0.15
v -0.2 -0.7 0.15
v 0.2 -0.7 0.15
v 0.3 -0.7 0.15
v -0.3 -0.7 0.05
v -0.2 -0.7 0.05
v 0.2 -0.7 0.05
v 0.3 -0.7 0.05
v -0.1 -0.7 -0.05
v 0.1 -0.7 -0.05
v -0.1 -0.7 -0.25
v 0.1 -0.7 -0.25
v -0.2 -0.4 0.45
v 0.2 -0.4 0.45
v -0.3 -0.4 0.35
v -0.2 -0.4 0.35
v 0.2 -0.4 0.35
v 0.3 -0.4 0.35
v -0.2 -0.4 0.25
v -0.1 -0.4 0.25
v 0.1 -0.4 0.25
v 0.2 -0.4 0.25
v -0.3 -0.4 0.15
v -0.2 -0.4 0.15
v 0.2 -0.4 0.15
v 0.3 -0.4 0.15
v -0.3 -0.4 0.05
v -0.2 -0.4 0.05
v 0.2 -0.4 0.05
v 0.3 -0.4 0.05
v -0.2 -0.4 -0.05
v 0.2 -0.4 -0.05
v -0.3 -0.4 -0.15
v 0.3 -0.4 -0.15
v -0.1 -0.3 0.55
v 0.1 -0.3 0.55
v -0.1 -0.3 0.45
v 0.1 -0.3 0.45
v -0.4 -0.2 0.15
v -0.3 -0.2 0.15
v 0.3 -0.2 0.15
v 0.4 -0.2 0.15
v -0.4 -0.2 0.05
v -0.3 -0.2 0.05
v 0.3 -0.2 0.05
v 0.4 -0.2 0.05
v -0.5 -0.1 0.15
v -0.4 -0.1 0.15
v 0.4 -0.1 0.15
v 0.5 -0.1 0.15
v -0.5 -0.1 0.05
v -0.4 -0.1 0.05
v -0.3 -0.1 0.05
v 0.3 -0.1 0.05
v 0.4 -0.1 0.05
v 0.5 -0.1 0.05
v -0.4 -0.1 -0.05
v -0.3 -0.1 -0.05
v 0.3 -0.1 -0.05
v 0.4 -0.1 -0.05
v -0.6 0 0.15
v -0.5 0 0.15
v 0.5 0 0.15
v 0.6 0 0.15
v -0.6 0 0.05
v -0.5 0 0.05
v 0.5 0 0.05
v 0.6 0 0.05
v -0.1 -0.8 -0.45
v 0.1 -0.8 -0.45
v -0.1 -0.8 -0.55
v 0.1 -0.8 -0.55
v -0.1 -0.7 -0.35
v 0.1 -0.7 -0.35
v -0.1 -0.7 -0.45
v 0.1 -0.7 -0.45
v -0.1 -0.6 -0.05
v 0.1 -0.6 -0.05
v -0.1 -0.6 -0.35
v 0.1 -0.6 -0.35
v -0.1 -0.2 0.55
v 0.1 -0.2 0.55
v -0.2 -0.2 0.45
v -0.1 -0.2 0.45
v 0.1 -0.2 0.45
v 0.2 -0.2 0.45
v -0.2 -0.2 0.35
v -0.1 -0.2 0.35
v 0.1 -0.2 0.35
v 0.2 -0.2 0.35
v -0.3 0 0.35
v 0.3 0 0.35
v -0.3 0 0.15
v -0.2 0 0.15
v -0.1 0 0.15
v 0.1 0 0.15
v 0.2 0 0.15
v 0.3 0 0.15
v -0.2 0 0.05
v -0.1 0 0.05
v 0.1 0 0.05
v 0.2 0 0.05
v -0.3 0 -0.05
v -0.2 0 -0.05
v 0.2 0 -0.05
v 0.3 0 -0.05
v -0.3 0 -0.15
v 0.3 0 -0.15
v -0.2 0.1 0.15
v -0.1 0.1 0.15
v 0.1 0.1 0.15
v 0.2 0.1 0.15
v -0.4 0.1 0.05
v -0.2 0.1 0.05
v -0.1 0.1 0.05
v 0.1 0.1 0.05
v 0.2 0.1 0.05
v 0.4 0.1 0.05
v -0.4 0.1 -0.05
v -0.2 0.1 -0.05
v 0.2 0.1 -0.05
v 0.4 0.1 -0.05
v -0.3 0.2 0.15
v -0.2 0.2 0.15
v 0.2 0.2 0.15
v 0.3 0.2 0.15
v -0.3 0.2 0.05
v -0.2 0.2 0.05
v 0.2 0.2 0.05
v 0.3 0.2 0.05
v -0.6 0.3 0.15
v -0.3 0.3 0.15
v 0.3 0.3 0.15
v 0.6 0.3 0.15
v -0.6 0.3 0.05
v -0.3 0.3 0.05
v 0.3 0.3 0.05
v 0.6 0.3 0.05

# faces
f 3/2/1 2/2/1 1/2/1
f 4/2/1 2/2/1 3/2/1
f 7/1/1 6/1/1 5/1/1
f 8/1/1 6/1/1 7/1/1
f 11/1/1 10/1/1 9/1/1
f 12/1/1 10/1/1 11/1/1
f 14/1/1 13/1/1 12/1/1
f 15/1/1 13/1/1 14/1/1
f 19/1/1 17/1/1 16/1/1
f 20/1/1 17/1/1 19/1/1
f 22/1/1 19/1/1 18/1/1
f 22/1/1 21/1/1 20/1/1
f 22/1/1 20/1/1 19/1/1
f 23/1/1 21/1/1 22/1/1
f 24/1/1 21/1/1 23/1/1
f 25/1/1 21/1/1 24/1/1
f 26/2/1 23/2/1 22/2/1
f 27/1/1 24/1/1 23/1/1
f 27/2/1 23/2/1 26/2/1
f 28/1/1 24/1/1 27/1/1
f 29/1/1 21/1/1 25/1/1
f 30/1/1 21/1/1 29/1/1
f 31/1/1 28/1/1 27/1/1
f 31/1/1 27/1/1 26/1/1
f 32/1/1 28/1/1 31/1/1
f 33/1/1 21/1/1 30/1/1
f 34/1/1 21/1/1 33/1/1
f 38/1/1 36/1/1 35/1/1
f 39/1/1 36/1/1 38/1/1
f 41/1/1 38/1/1 37/1/1
f 41/1/1 40/1/1 39/1/1
f 41/1/1 39/1/1 38/1/1
f 42/1/1 40/1/1 41/1/1
f 45/1/1 41/1/1 37/1/1
f 46/1/1 41/1/1 45/1/1
f 47/1/1 40/1/1 42/1/1
f 48/1/1 40/1/1 47/1/1
f 49/3/1 44/3/1 43/3/1
f 50/3/1 44/3/1 49/3/1
f 55/1/1 52/1/1 51/1/1
f 56/3/1 53/3/1 52/3/1
f 56/1/1 52/1/1 55/1/1
f 57/3/1 53/3/1 56/3/1
f 59/1/1 55/1/1 54/1/1
f 59/1/1 56/1/1 55/1/1
f 60/1/1 56/1/1 59/1/1
f 61/1/1 56/1/1 60/1/1
f 62/1/1 59/1/1 58/1/1
f 62/1/1 60/1/1 59/1/1
f 63/1/1 60/1/1 62/1/1
f 66/2/1 65/2/1 64/2/1
f 67/2/1 65/2/1 66/2/1
f 70/1/1 69/1/1 68/1/1
f 71/1/1 69/1/1 70/1/1
f 74/1/1 73/1/1 72/1/1
f 75/1/1 73/1/1 74/1/1
f 79/1/1 77/1/1 76/1/1
f 80/1/1 77/1/1 79/1/1
f 81/1/1 79/1/1 78/1/1
f 82/1/1 79/1/1 81/1/1
f 85/2/1 84/2/1 83/2/1
f 86/2/1 84/2/1 85/2/1
f 87/2/2 88/2/2 89/2/2
f 89/2/2 88/2/2 90/2/2
f 91/1/2 92/1/2 94/1/2
f 94/1/2 92/1/2 95/1/2
f 93/1/2 94/1/2 96/1/2
f 96/1/2 94/1/2 97/1/2
f 98/1/2 99/1/2 100/1/2
f 100/1/2 99/1/2 101/1/2
f 102/1/2 103/1/2 104/1/2
f 104/1/2 103/1/2 105/1/2
f 106/1/2 107/1/2 110/1/2
f 107/3/2 108/3/2 111/3/2
f 110/1/2 107/1/2 111/1/2
f 111/3/2 108/3/2 112/3/2
f 109/1/2 110/1/2 114/1/2
f 110/1/2 111/1/2 114/1/2
f 114/1/2 111/1/2 115/1/2
f 115/1/2 111/1/2 116/1/2
f 113/1/2 114/1/2 117/1/2
f 114/1/2 115/1/2 117/1/2
f 117/1/2 115/1/2 118/1/2
f 119/2/2 120/2/2 121/2/2
f 121/2/2 120/2/2 122/2/2
f 123/1/2 124/1/2 126/1/2
f 126/1/2 124/1/2 127/1/2
f 125/1/2 126/1/2 129/1/2
f 127/1/2 128/1/2 129/1/2
f 126/1/2 127/1/2 129/1/2
f 129/1/2 128/1/2 130/1/2
f 125/1/2 129/1/2 133/1/2
f 133/1/2 129/1/2 134/1/2
f 130/1/2 128/1/2 135/1/2
f 135/1/2 128/1/2 136/1/2
f 131/3/2 132/3/2 137/3/2
f 137/3/2 132/3/2 138/3/2
f 139/1/2 140/1/2 142/1/2
f 142/1/2 140/1/2 143/1/2
f 141/1/2 142/1/2 145/1/2
f 143/1/2 144/1/2 145/1/2
f 142/1/2 143/1/2 145/1/2
f 145/1/2 144/1/2 146/1/2
f 146/1/2 144/1/2 147/1/2
f 147/1/2 144/1/2 148/1/2
f 145/2/2 146/2/2 149/2/2
f 146/1/2 147/1/2 150/1/2
f 149/2/2 146/2/2 150/2/2
f 150/1/2 147/1/2 151/1/2
f 148/1/2 144/1/2 152/1/2
f 152/1/2 144/1/2 153/1/2
f 150/1/2 151/1/2 154/1/2
f 149/1/2 150/1/2 154/1/2
f 154/1/2 151/1/2 155/1/2
f 153/1/2 144/1/2 156/1/2
f 156/1/2 144/1/2 157/1/2
f 158/1/2 159/1/2 160/1/2
f 160/1/2 159/1/2 161/1/2
f 161/1/2 162/1/2 163/1/2
f 163/1/2 162/1/2 164/1/2
f 165/1/2 166/1/2 167/1/2
f 167/1/2 166/1/2 168/1/2
f 169/2/2 170/2/2 171/2/2
f 171/2/2 170/2/2 172/2/2
f 175/2/3 174/2/3 173/2/3
f 176/2/3 174/2/3 175/2/3
f 179/3/3 178/3/3 177/3/3
f 180/3/3 178/3/3 179/3/3
f 181/3/3 179/3/3 177/3/3
f 183/3/3 181/3/3 177/3/3
f 183/3/3 182/3/3 181/3/3
f 184/3/3 182/3/3 183/3/3
f 189/1/3 186/1/3 185/1/3
f 190/2/3 187/2/3 186/2/3
f 190/1/3 186/1/3 189/1/3
f 191/1/3 188/1/3 187/1/3
f 191/2/3 187/2/3 190/2/3
f 192/1/3 191/1/3 190/1/3
f 193/1/3 191/1/3 192/1/3
f 195/1/3 191/1/3 193/1/3
f 196/1/3 188/1/3 191/1/3
f 196/1/3 191/1/3 195/1/3
f 197/1/3 195/1/3 194/1/3
f 198/2/3 196/2/3 195/2/3
f 198/1/3 195/1/3 197/1/3
f 199/1/3 188/1/3 196/1/3
f 199/2/3 196/2/3 198/2/3
f 200/1/3 188/1/3 199/1/3
f 203/1/3 202/1/3 201/1/3
f 204/1/3 202/1/3 203/1/3
f 205/1/3 203/1/3 201/1/3
f 205/3/3 204/3/3 203/3/3
f 206/3/3 204/3/3 205/3/3
f 207/1/3 205/1/3 201/1/3
f 207/1/3 206/1/3 205/1/3
f 208/1/3 206/1/3 207/1/3
f 212/2/3 210/2/3 209/2/3
f 213/2/3 210/2/3 212/2/3
f 215/1/3 212/1/3 211/1/3
f 215/1/3 213/1/3 212/1/3
f 216/1/3 213/1/3 215/1/3
f 219/1/3 215/1/3 214/1/3
f 220/3/3 216/3/3 215/3/3
f 220/1/3 215/1/3 219/1/3
f 221/3/3 216/3/3 220/3/3
f 222/2/3 210/2/3 213/2/3
f 222/1/3 213/1/3 216/1/3
f 223/2/3 210/2/3 222/2/3
f 226/1/3 218/1/3 217/1/3
f 227/1/3 218/1/3 226/1/3
f 228/3/3 216/3/3 221/3/3
f 229/1/3 222/1/3 216/1/3
f 229/3/3 216/3/3 228/3/3
f 230/1/3 222/1/3 229/1/3
f 231/1/3 225/1/3 224/1/3
f 232/1/3 225/1/3 231/1/3
f 233/1/3 229/1/3 228/1/3
f 234/1/3 229/1/3 233/1/3
f 239/1/3 236/1/3 235/1/3
f 240/1/3 236/1/3 239/1/3
f 243/1/3 238/1/3 237/1/3
f 244/1/3 238/1/3 243/1/3
f 246/1/3 242/1/3 241/1/3
f 247/1/3 242/1/3 246/1/3
f 250/3/3 244/3/3 243/3/3
f 251/1/3 245/1/3 244/1/3
f 253/1/3 249/1/3 248/1/3
f 254/3/3 250/3/3 249/3/3
f 254/1/3 249/1/3 253/1/3
f 255/1/3 251/1/3 244/1/3
f 255/3/3 250/3/3 254/3/3
f 255/3/3 244/3/3 250/3/3
f 256/1/3 255/1/3 254/1/3
f 257/1/3 255/1/3 256/1/3
f 258/1/3 251/1/3 255/1/3
f 258/1/3 255/1/3 257/1/3
f 258/2/3 252/2/3 251/2/3
f 259/2/3 258/2/3 257/2/3
f 260/2/3 252/2/3 258/2/3
f 260/2/3 258/2/3 259/2/3
f 263/1/3 262/1/3 261/1/3
f 264/1/3 262/1/3 263/1/3
f 267/1/3 266/1/3 265/1/3
f 268/1/3 266/1/3 267/1/3
f 269/2/4 270/2/4 272/2/4
f 272/2/4 270/2/4 273/2/4
f 271/1/4 272/1/4 275/1/4
f 272/1/4 273/1/4 275/1/4
f 275/1/4 273/1/4 276/1/4
f 274/1/4 275/1/4 279/1/4
f 279/1/4 275/1/4 280/1/4
f 273/2/4 270/2/4 281/2/4
f 276/1/4 273/1/4 281/1/4
f 281/2/4 270/2/4 282/2/4
f 277/1/4 278/1/4 285/1/4
f 285/1/4 278/1/4 286/1/4
f 276/1/4 281/1/4 288/1/4
f 288/1/4 281/1/4 289/1/4
f 283/1/4 284/1/4 290/1/4
f 290/1/4 284/1/4 291/1/4
f 287/1/4 288/1/4 292/1/4
f 292/1/4 288/1/4 293/1/4
f 294/1/4 295/1/4 298/1/4
f 298/1/4 295/1/4 299/1/4
f 296/1/4 297/1/4 302/1/4
f 302/1/4 297/1/4 303/1/4
f 300/1/4 301/1/4 305/1/4
f 305/1/4 301/1/4 306/1/4
f 303/1/4 304/1/4 309/1/4
f 307/1/4 308/1/4 311/1/4
f 311/1/4 308/1/4 312/1/4
f 303/1/4 309/1/4 313/1/4
f 312/1/4 313/1/4 314/1/4
f 314/1/4 313/1/4 315/1/4
f 313/1/4 309/1/4 316/1/4
f 315/1/4 313/1/4 316/1/4
f 309/2/4 310/2/4 316/2/4
f 315/2/4 316/2/4 317/2/4
f 316/2/4 310/2/4 318/2/4
f 317/2/4 316/2/4 318/2/4
f 319/1/4 320/1/4 321/1/4
f 321/1/4 320/1/4 322/1/4
f 322/1/4 320/1/4 325/1/4
f 325/1/4 320/1/4 326/1/4
f 323/1/4 324/1/4 327/1/4
f 327/1/4 324/1/4 328/1/4
f 323/1/4 327/1/4 329/1/4
f 328/1/4 324/1/4 330/1/4
f 323/1/4 329/1/4 331/1/4
f 329/1/4 330/1/4 331/1/4
f 330/1/4 324/1/4 332/1/4
f 331/1/4 330/1/4 332/1/4
f 333/1/4 334/1/4 336/1/4
f 335/1/4 336/1/4 337/1/4
f 336/1/4 334/1/4 338/1/4
f 337/1/4 336/1/4 338/1/4
f 339/1/4 340/1/4 341/1/4
f 341/1/4 340/1/4 342/1/4
f 343/1/4 344/1/4 345/1/4
f 345/1/4 344/1/4 346/1/4
f 347/1/4 348/1/4 349/1/4
f 349/1/4 348/1/4 350/1/4
f 351/3/4 352/3/4 353/3/4
f 353/3/4 352/3/4 354/3/4
f 359/1/5 356/1/5 355/1/5
f 360/1/5 356/1/5 359/1/5
f 361/1/5 358/1/5 357/1/5
f 362/1/5 358/1/5 361/1/5
f 365/1/5 364/1/5 363/1/5
f 366/1/5 364/1/5 365/1/5
f 367/3/5 366/3/5 365/3/5
f 368/3/5 366/3/5 367/3/5
f 371/1/5 370/1/5 369/1/5
f 372/1/5 370/1/5 371/1/5
f 373/1/5 370/1/5 372/1/5
f 374/1/5 370/1/5 373/1/5
f 376/1/5 373/1/5 372/1/5
f 377/1/5 373/1/5 376/1/5
f 379/1/5 376/1/5 375/1/5
f 379/1/5 378/1/5 377/1/5
f 379/1/5 377/1/5 376/1/5
f 380/1/5 378/1/5 379/1/5
f 383/1/5 382/1/5 381/1/5
f 384/1/5 382/1/5 383/1/5
f 389/1/5 386/1/5 385/1/5
f 390/1/5 386/1/5 389/1/5
f 391/1/5 388/1/5 387/1/5
f 392/1/5 388/1/5 391/1/5
f 395/1/5 394/1/5 393/1/5
f 396/1/5 394/1/5 395/1/5
f 400/3/5 398/3/5 397/3/5
f 401/3/5 398/3/5 400/3/5
f 403/1/5 400/1/5 399/1/5
f 403/1/5 402/1/5 401/1/5
f 403/1/5 401/1/5 400/1/5
f 404/1/5 402/1/5 403/1/5
f 405/1/5 402/1/5 404/1/5
f 406/1/5 402/1/5 405/1/5
f 407/1/5 403/1/5 399/1/5
f 408/1/5 403/1/5 407/1/5
f 409/1/5 402/1/5 406/1/5
f 410/1/5 402/1/5 409/1/5
f 415/1/5 412/1/5 411/1/5
f 416/1/5 414/1/5 413/1/5
f 417/1/5 415/1/5 411/1/5
f 417/1/5 416/1/5 415/1/5
f 418/1/5 414/1/5 416/1/5
f 418/1/5 416/1/5 417/1/5
f 421/2/5 420/2/5 419/2/5
f 422/2/5 420/2/5 421/2/5
f 427/1/5 424/1/5 423/1/5
f 428/1/5 424/1/5 427/1/5
f 429/1/5 426/1/5 425/1/5
f 430/1/5 426/1/5 429/1/5
f 435/1/5 432/1/5 431/1/5
f 436/1/5 432/1/5 435/1/5
f 439/1/5 434/1/5 433/1/5
f 440/1/5 434/1/5 439/1/5
f 441/1/5 437/1/5 436/1/5
f 442/1/5 437/1/5 441/1/5
f 443/1/5 439/1/5 438/1/5
f 444/1/5 439/1/5 443/1/5
f 449/2/5 446/2/5 445/2/5
f 450/2/5 446/2/5 449/2/5
f 451/2/5 448/2/5 447/2/5
f 452/2/5 448/2/5 451/2/5
f 453/3/6 454/3/6 455/3/6
f 455/3/6 454/3/6 456/3/6
f 457/1/6 458/1/6 459/1/6
f 459/1/6 458/1/6 460/1/6
f 461/1/6 462/1/6 463/1/6
f 463/1/6 462/1/6 464/1/6
f 465/2/6 466/2/6 468/2/6
f 468/2/6 466/2/6 469/2/6
f 467/3/6 468/3/6 471/3/6
f 468/1/6 469/1/6 472/1/6
f 471/3/6 468/3/6 472/3/6
f 469/3/6 470/3/6 473/3/6
f 472/1/6 469/1/6 473/1/6
f 473/3/6 470/3/6 474/3/6
f 475/1/6 476/1/6 477/1/6
f 477/1/6 476/1/6 478/1/6
f 478/1/6 476/1/6 479/1/6
f 479/1/6 476/1/6 480/1/6
f 480/1/6 476/1/6 481/1/6
f 481/1/6 476/1/6 482/1/6
f 479/1/6 480/1/6 484/1/6
f 484/1/6 480/1/6 485/1/6
f 483/1/6 484/1/6 488/1/6
f 485/1/6 486/1/6 488/1/6
f 484/1/6 485/1/6 488/1/6
f 488/1/6 486/1/6 489/1/6
f 487/1/6 488/1/6 491/1/6
f 489/1/6 490/1/6 491/1/6
f 488/1/6 489/1/6 491/1/6
f 491/1/6 490/1/6 492/1/6
f 493/1/6 494/1/6 498/1/6
f 498/1/6 494/1/6 499/1/6
f 495/1/6 496/1/6 500/1/6
f 500/1/6 496/1/6 501/1/6
f 497/1/6 498/1/6 503/1/6
f 503/1/6 498/1/6 504/1/6
f 501/1/6 502/1/6 505/1/6
f 505/1/6 502/1/6 506/1/6
f 507/1/6 508/1/6 511/1/6
f 511/1/6 508/1/6 512/1/6
f 509/1/6 510/1/6 513/1/6
f 513/1/6 510/1/6 514/1/6
f 515/2/6 516/2/6 519/2/6
f 519/2/6 516/2/6 520/2/6
f 517/2/6 518/2/6 521/2/6
f 521/2/6 518/2/6 522/2/6
