# MagicaVoxel @ Ephtracy

# group
o 

# material
mtllib Player_Cheetah.vox-0.mtl
usemtl palette

# normals
vn -1 0 0
vn 1 0 0
vn 0 0 1
vn 0 0 -1
vn 0 -1 0
vn 0 1 0

# texcoords
vt 0.908203 0.5
vt 0.970703 0.5
vt 0.974609 0.5
vt 0.978516 0.5

# verts
v -0.3 -0.1 0.2
v -0.3 -0.1 -0.3
v -0.3 0.1 0.2
v -0.3 0.1 0.1
v -0.3 0.2 0.2
v -0.3 0.2 0.1
v -0.3 0.3 0.2
v -0.3 0.3 0
v -0.3 0.3 -0.1
v -0.3 0.3 -0.3
v -0.3 0.5 0
v -0.3 0.5 -0.1
v -0.2 -0.5 0.1
v -0.2 -0.5 -0.2
v -0.2 -0.2 -0.1
v -0.2 -0.2 -0.2
v -0.2 -0.1 0.1
v -0.2 -0.1 -0.1
v -0.2 -0.1 -0.2
v -0.2 0.3 -0.1
v -0.2 0.3 -0.2
v -0.2 0.4 -0.1
v -0.2 0.4 -0.2
v -0.1 0 0.3
v -0.1 0 0.2
v -0.1 0.1 0.3
v -0.1 0.1 0.2
v 0.1 0.3 0
v 0.1 0.3 -0.1
v 0.1 0.3 -0.2
v 0.1 0.4 0
v 0.1 0.4 -0.1
v 0.1 0.4 -0.2
v 0.1 0.5 0
v 0.1 0.5 -0.1
v -0.1 0.3 0
v -0.1 0.3 -0.1
v -0.1 0.3 -0.2
v -0.1 0.4 0
v -0.1 0.4 -0.1
v -0.1 0.4 -0.2
v -0.1 0.5 0
v -0.1 0.5 -0.1
v 0.1 0 0.3
v 0.1 0 0.2
v 0.1 0.1 0.3
v 0.1 0.1 0.2
v 0.2 -0.5 0.1
v 0.2 -0.5 -0.2
v 0.2 -0.2 -0.1
v 0.2 -0.2 -0.2
v 0.2 -0.1 0.1
v 0.2 -0.1 -0.1
v 0.2 -0.1 -0.2
v 0.2 0.3 -0.1
v 0.2 0.3 -0.2
v 0.2 0.4 -0.1
v 0.2 0.4 -0.2
v 0.3 -0.1 0.2
v 0.3 -0.1 -0.3
v 0.3 0.1 0.2
v 0.3 0.1 0.1
v 0.3 0.2 0.2
v 0.3 0.2 0.1
v 0.3 0.3 0.2
v 0.3 0.3 0
v 0.3 0.3 -0.1
v 0.3 0.3 -0.3
v 0.3 0.5 0
v 0.3 0.5 -0.1
v -0.1 0 0.3
v -0.1 0.1 0.3
v 0.1 0 0.3
v 0.1 0.1 0.3
v -0.3 -0.1 0.2
v -0.3 0.1 0.2
v -0.3 0.2 0.2
v -0.3 0.3 0.2
v -0.2 0.1 0.2
v -0.2 0.2 0.2
v -0.1 -0.1 0.2
v -0.1 0 0.2
v -0.1 0.1 0.2
v -0.1 0.3 0.2
v 0.1 -0.1 0.2
v 0.1 0 0.2
v 0.1 0.1 0.2
v 0.1 0.3 0.2
v 0.2 0.1 0.2
v 0.2 0.2 0.2
v 0.3 -0.1 0.2
v 0.3 0.1 0.2
v 0.3 0.2 0.2
v 0.3 0.3 0.2
v -0.2 -0.5 0.1
v -0.2 -0.1 0.1
v -0.1 -0.5 0.1
v -0.1 -0.1 0.1
v 0.1 -0.5 0.1
v 0.1 -0.1 0.1
v 0.2 -0.5 0.1
v 0.2 -0.1 0.1
v -0.3 0.3 0
v -0.3 0.5 0
v -0.2 0.3 0
v -0.2 0.4 0
v -0.1 0.3 0
v -0.1 0.4 0
v -0.1 0.5 0
v 0.1 0.3 0
v 0.1 0.4 0
v 0.1 0.5 0
v 0.2 0.3 0
v 0.2 0.4 0
v 0.3 0.3 0
v 0.3 0.5 0
v -0.3 0.3 -0.1
v -0.3 0.5 -0.1
v -0.2 0.3 -0.1
v -0.2 0.4 -0.1
v -0.1 0.4 -0.1
v -0.1 0.5 -0.1
v 0.1 0.4 -0.1
v 0.1 0.5 -0.1
v 0.2 0.3 -0.1
v 0.2 0.4 -0.1
v 0.3 0.3 -0.1
v 0.3 0.5 -0.1
v -0.2 -0.5 -0.2
v -0.2 -0.2 -0.2
v -0.2 -0.1 -0.2
v -0.2 0.3 -0.2
v -0.2 0.4 -0.2
v -0.1 -0.5 -0.2
v -0.1 -0.3 -0.2
v -0.1 -0.2 -0.2
v -0.1 -0.1 -0.2
v -0.1 0.3 -0.2
v -0.1 0.4 -0.2
v 0 -0.3 -0.2
v 0 -0.2 -0.2
v 0 -0.1 -0.2
v 0.1 -0.5 -0.2
v 0.1 -0.2 -0.2
v 0.1 0.3 -0.2
v 0.1 0.4 -0.2
v 0.2 -0.5 -0.2
v 0.2 -0.2 -0.2
v 0.2 -0.1 -0.2
v 0.2 0.3 -0.2
v 0.2 0.4 -0.2
v -0.3 -0.1 -0.3
v -0.3 0.3 -0.3
v -0.2 -0.1 -0.3
v -0.2 0.2 -0.3
v -0.2 0.3 -0.3
v -0.1 -0.1 -0.3
v -0.1 0 -0.3
v -0.1 0.2 -0.3
v -0.1 0.3 -0.3
v 0 -0.1 -0.3
v 0 0 -0.3
v 0.1 0 -0.3
v 0.1 0.1 -0.3
v 0.2 -0.1 -0.3
v 0.2 0 -0.3
v 0.2 0.1 -0.3
v 0.2 0.3 -0.3
v 0.3 -0.1 -0.3
v 0.3 0.3 -0.3
v -0.2 -0.5 0.1
v -0.1 -0.5 0.1
v 0.1 -0.5 0.1
v 0.2 -0.5 0.1
v -0.2 -0.5 -0.2
v -0.1 -0.5 -0.2
v 0.1 -0.5 -0.2
v 0.2 -0.5 -0.2
v -0.3 -0.1 0.2
v -0.1 -0.1 0.2
v 0.1 -0.1 0.2
v 0.3 -0.1 0.2
v -0.2 -0.1 0.1
v -0.1 -0.1 0.1
v 0.1 -0.1 0.1
v 0.2 -0.1 0.1
v -0.2 -0.1 -0.1
v 0.2 -0.1 -0.1
v -0.2 -0.1 -0.2
v -0.1 -0.1 -0.2
v 0 -0.1 -0.2
v 0.2 -0.1 -0.2
v -0.3 -0.1 -0.3
v -0.2 -0.1 -0.3
v -0.1 -0.1 -0.3
v 0 -0.1 -0.3
v 0.2 -0.1 -0.3
v 0.3 -0.1 -0.3
v -0.1 0 0.3
v 0.1 0 0.3
v -0.1 0 0.2
v 0.1 0 0.2
v -0.1 0.1 0.3
v 0.1 0.1 0.3
v -0.1 0.1 0.2
v 0.1 0.1 0.2
v -0.3 0.3 0.2
v -0.1 0.3 0.2
v 0.1 0.3 0.2
v 0.3 0.3 0.2
v -0.3 0.3 0
v -0.2 0.3 0
v -0.1 0.3 0
v 0.1 0.3 0
v 0.2 0.3 0
v 0.3 0.3 0
v -0.3 0.3 -0.1
v -0.2 0.3 -0.1
v -0.1 0.3 -0.1
v 0.1 0.3 -0.1
v 0.2 0.3 -0.1
v 0.3 0.3 -0.1
v -0.2 0.3 -0.2
v -0.1 0.3 -0.2
v 0.1 0.3 -0.2
v 0.2 0.3 -0.2
v -0.3 0.3 -0.3
v -0.2 0.3 -0.3
v -0.1 0.3 -0.3
v 0.2 0.3 -0.3
v 0.3 0.3 -0.3
v -0.2 0.4 -0.1
v -0.1 0.4 -0.1
v 0.1 0.4 -0.1
v 0.2 0.4 -0.1
v -0.2 0.4 -0.2
v -0.1 0.4 -0.2
v 0.1 0.4 -0.2
v 0.2 0.4 -0.2
v -0.3 0.5 0
v -0.1 0.5 0
v 0.1 0.5 0
v 0.3 0.5 0
v -0.3 0.5 -0.1
v -0.1 0.5 -0.1
v 0.1 0.5 -0.1
v 0.3 0.5 -0.1

# faces
f 3/2/1 2/2/1 1/2/1
f 4/2/1 2/2/1 3/2/1
f 5/3/1 4/3/1 3/3/1
f 6/2/1 2/2/1 4/2/1
f 6/3/1 4/3/1 5/3/1
f 7/2/1 6/2/1 5/2/1
f 8/2/1 2/2/1 6/2/1
f 8/2/1 6/2/1 7/2/1
f 9/2/1 2/2/1 8/2/1
f 10/2/1 2/2/1 9/2/1
f 11/1/1 9/1/1 8/1/1
f 12/1/1 9/1/1 11/1/1
f 15/2/1 14/2/1 13/2/1
f 16/2/1 14/2/1 15/2/1
f 17/2/1 15/2/1 13/2/1
f 18/1/1 16/1/1 15/1/1
f 18/2/1 15/2/1 17/2/1
f 19/1/1 16/1/1 18/1/1
f 22/1/1 21/1/1 20/1/1
f 23/1/1 21/1/1 22/1/1
f 26/3/1 25/3/1 24/3/1
f 27/3/1 25/3/1 26/3/1
f 31/4/1 29/4/1 28/4/1
f 32/1/1 30/1/1 29/1/1
f 32/4/1 29/4/1 31/4/1
f 33/1/1 30/1/1 32/1/1
f 34/1/1 32/1/1 31/1/1
f 35/1/1 32/1/1 34/1/1
f 36/4/2 37/4/2 39/4/2
f 37/1/2 38/1/2 40/1/2
f 39/4/2 37/4/2 40/4/2
f 40/1/2 38/1/2 41/1/2
f 39/1/2 40/1/2 42/1/2
f 42/1/2 40/1/2 43/1/2
f 44/3/2 45/3/2 46/3/2
f 46/3/2 45/3/2 47/3/2
f 48/2/2 49/2/2 50/2/2
f 50/2/2 49/2/2 51/2/2
f 48/2/2 50/2/2 52/2/2
f 50/1/2 51/1/2 53/1/2
f 52/2/2 50/2/2 53/2/2
f 53/1/2 51/1/2 54/1/2
f 55/1/2 56/1/2 57/1/2
f 57/1/2 56/1/2 58/1/2
f 59/2/2 60/2/2 61/2/2
f 61/2/2 60/2/2 62/2/2
f 61/3/2 62/3/2 63/3/2
f 62/2/2 60/2/2 64/2/2
f 63/3/2 62/3/2 64/3/2
f 63/2/2 64/2/2 65/2/2
f 64/2/2 60/2/2 66/2/2
f 65/2/2 64/2/2 66/2/2
f 66/2/2 60/2/2 67/2/2
f 67/2/2 60/2/2 68/2/2
f 66/1/2 67/1/2 69/1/2
f 69/1/2 67/1/2 70/1/2
f 73/3/3 72/3/3 71/3/3
f 74/3/3 72/3/3 73/3/3
f 79/2/3 76/2/3 75/2/3
f 79/3/3 77/3/3 76/3/3
f 80/2/3 78/2/3 77/2/3
f 80/3/3 77/3/3 79/3/3
f 81/2/3 79/2/3 75/2/3
f 81/2/3 80/2/3 79/2/3
f 82/2/3 80/2/3 81/2/3
f 83/2/3 80/2/3 82/2/3
f 84/2/3 78/2/3 80/2/3
f 84/2/3 80/2/3 83/2/3
f 85/1/3 82/1/3 81/1/3
f 86/1/3 82/1/3 85/1/3
f 87/1/3 84/1/3 83/1/3
f 88/1/3 84/1/3 87/1/3
f 89/2/3 86/2/3 85/2/3
f 89/2/3 87/2/3 86/2/3
f 89/2/3 88/2/3 87/2/3
f 90/2/3 88/2/3 89/2/3
f 91/2/3 89/2/3 85/2/3
f 92/3/3 90/3/3 89/3/3
f 92/2/3 89/2/3 91/2/3
f 93/2/3 88/2/3 90/2/3
f 93/3/3 90/3/3 92/3/3
f 94/2/3 88/2/3 93/2/3
f 97/2/3 96/2/3 95/2/3
f 98/2/3 96/2/3 97/2/3
f 99/1/3 98/1/3 97/1/3
f 100/1/3 98/1/3 99/1/3
f 101/2/3 100/2/3 99/2/3
f 102/2/3 100/2/3 101/2/3
f 105/1/3 104/1/3 103/1/3
f 106/1/3 104/1/3 105/1/3
f 107/4/3 106/4/3 105/4/3
f 108/1/3 104/1/3 106/1/3
f 108/4/3 106/4/3 107/4/3
f 109/1/3 104/1/3 108/1/3
f 113/4/3 111/4/3 110/4/3
f 114/1/3 112/1/3 111/1/3
f 114/4/3 111/4/3 113/4/3
f 115/1/3 114/1/3 113/1/3
f 116/1/3 112/1/3 114/1/3
f 116/1/3 114/1/3 115/1/3
f 117/1/4 118/1/4 119/1/4
f 119/1/4 118/1/4 120/1/4
f 120/1/4 118/1/4 121/1/4
f 121/1/4 118/1/4 122/1/4
f 123/1/4 124/1/4 126/1/4
f 125/1/4 126/1/4 127/1/4
f 126/1/4 124/1/4 128/1/4
f 127/1/4 126/1/4 128/1/4
f 129/2/4 130/2/4 134/2/4
f 134/2/4 130/2/4 135/2/4
f 130/1/4 131/1/4 136/1/4
f 135/2/4 130/2/4 136/2/4
f 136/1/4 131/1/4 137/1/4
f 132/1/4 133/1/4 138/1/4
f 138/1/4 133/1/4 139/1/4
f 134/1/4 135/1/4 140/1/4
f 135/3/4 136/3/4 140/3/4
f 136/1/4 137/1/4 141/1/4
f 140/3/4 136/3/4 141/3/4
f 141/1/4 137/1/4 142/1/4
f 134/1/4 140/1/4 143/1/4
f 140/1/4 141/1/4 143/1/4
f 141/1/4 142/1/4 143/1/4
f 143/1/4 142/1/4 144/1/4
f 143/2/4 144/2/4 147/2/4
f 144/1/4 142/1/4 148/1/4
f 147/2/4 144/2/4 148/2/4
f 148/1/4 142/1/4 149/1/4
f 145/1/4 146/1/4 150/1/4
f 150/1/4 146/1/4 151/1/4
f 152/2/4 153/2/4 154/2/4
f 154/2/4 153/2/4 155/2/4
f 155/2/4 153/2/4 156/2/4
f 154/1/4 155/1/4 157/1/4
f 157/1/4 155/1/4 158/1/4
f 155/3/4 156/3/4 159/3/4
f 158/1/4 155/1/4 159/1/4
f 159/3/4 156/3/4 160/3/4
f 157/3/4 158/3/4 161/3/4
f 158/1/4 159/1/4 162/1/4
f 161/3/4 158/3/4 162/3/4
f 159/1/4 160/1/4 162/1/4
f 161/1/4 162/1/4 163/1/4
f 162/1/4 160/1/4 163/1/4
f 163/1/4 160/1/4 164/1/4
f 161/1/4 163/1/4 165/1/4
f 163/3/4 164/3/4 166/3/4
f 165/1/4 163/1/4 166/1/4
f 164/1/4 160/1/4 167/1/4
f 166/3/4 164/3/4 167/3/4
f 167/1/4 160/1/4 168/1/4
f 165/2/4 166/2/4 169/2/4
f 166/2/4 167/2/4 169/2/4
f 167/2/4 168/2/4 169/2/4
f 169/2/4 168/2/4 170/2/4
f 175/2/5 172/2/5 171/2/5
f 176/1/5 173/1/5 172/1/5
f 176/2/5 172/2/5 175/2/5
f 177/2/5 174/2/5 173/2/5
f 177/1/5 173/1/5 176/1/5
f 178/2/5 174/2/5 177/2/5
f 183/2/5 180/2/5 179/2/5
f 184/1/5 181/1/5 180/1/5
f 184/2/5 180/2/5 183/2/5
f 185/2/5 182/2/5 181/2/5
f 185/1/5 181/1/5 184/1/5
f 186/2/5 182/2/5 185/2/5
f 187/2/5 183/2/5 179/2/5
f 188/2/5 182/2/5 186/2/5
f 189/2/5 187/2/5 179/2/5
f 192/2/5 182/2/5 188/2/5
f 193/2/5 189/2/5 179/2/5
f 194/1/5 190/1/5 189/1/5
f 194/2/5 189/2/5 193/2/5
f 195/3/5 191/3/5 190/3/5
f 195/1/5 190/1/5 194/1/5
f 196/1/5 192/1/5 191/1/5
f 196/3/5 191/3/5 195/3/5
f 197/2/5 182/2/5 192/2/5
f 197/1/5 192/1/5 196/1/5
f 198/2/5 182/2/5 197/2/5
f 201/3/5 200/3/5 199/3/5
f 202/3/5 200/3/5 201/3/5
f 203/3/6 204/3/6 205/3/6
f 205/3/6 204/3/6 206/3/6
f 207/2/6 208/2/6 211/2/6
f 211/2/6 208/2/6 212/2/6
f 208/1/6 209/1/6 213/1/6
f 212/2/6 208/2/6 213/2/6
f 209/2/6 210/2/6 214/2/6
f 213/1/6 209/1/6 214/1/6
f 214/2/6 210/2/6 215/2/6
f 215/2/6 210/2/6 216/2/6
f 213/1/6 214/1/6 219/1/6
f 219/1/6 214/1/6 220/1/6
f 217/2/6 218/2/6 223/2/6
f 219/1/6 220/1/6 224/1/6
f 224/1/6 220/1/6 225/1/6
f 221/2/6 222/2/6 226/2/6
f 217/2/6 223/2/6 227/2/6
f 223/3/6 224/3/6 228/3/6
f 227/2/6 223/2/6 228/2/6
f 224/1/6 225/1/6 229/1/6
f 228/3/6 224/3/6 229/3/6
f 225/1/6 226/1/6 229/1/6
f 226/2/6 222/2/6 230/2/6
f 229/1/6 226/1/6 230/1/6
f 230/2/6 222/2/6 231/2/6
f 232/1/6 233/1/6 236/1/6
f 236/1/6 233/1/6 237/1/6
f 234/1/6 235/1/6 238/1/6
f 238/1/6 235/1/6 239/1/6
f 240/1/6 241/1/6 244/1/6
f 244/1/6 241/1/6 245/1/6
f 242/1/6 243/1/6 246/1/6
f 246/1/6 243/1/6 247/1/6
